<svg width="165" height="253" viewBox="0 0 165 253" fill="none" xmlns="http://www.w3.org/2000/svg">
<path fill-rule="evenodd" clip-rule="evenodd" d="M63.7884 144.36L62.5992 127.486C62.5625 126.966 62.1335 126.561 61.6124 126.555C61.0265 126.548 60.5594 127.043 60.6006 127.627L61.7781 144.335C62.73 157.842 56.5639 170.398 45.287 177.914C31.1035 187.368 21.9691 202.049 19.8987 218.72L18.9125 226.661C18.8461 227.196 19.2083 227.689 19.738 227.786C20.3122 227.89 20.8562 227.491 20.9281 226.912L21.9001 219.085C23.9092 202.908 32.7734 188.66 46.5374 179.486C58.3339 171.623 64.7841 158.49 63.7884 144.36Z" fill="#839096"/>
<path d="M45.7657 53.0178C53.5039 24.0331 83.2736 6.80936 112.258 14.5475C141.243 22.2856 158.467 52.0554 150.729 81.0401L45.7657 53.0178Z" fill="#72CEAB"/>
<path d="M150.729 81.0402C142.991 110.025 113.221 127.249 84.2361 119.51C55.2514 111.772 38.0277 82.0026 45.7658 53.0179L150.729 81.0402Z" fill="#72CEAB"/>
<path d="M67.6409 115.861L55.1122 121.864L67.9191 129.726L67.6409 115.861Z" fill="#72CEAB"/>
<path fill-rule="evenodd" clip-rule="evenodd" d="M66.0951 113.298C65.8177 113.762 65.9687 114.362 66.4322 114.64L69.4668 116.455C69.9303 116.733 70.5309 116.582 70.8082 116.118C71.0855 115.655 70.9346 115.054 70.4711 114.777L67.4364 112.961C66.9729 112.684 66.3724 112.835 66.0951 113.298Z" fill="#839096"/>
<path d="M88.6905 28.2202C85.4899 22.6995 76.6644 28.2529 73.2223 30.5133C70.8147 32.1202 68.6211 34.0265 66.694 36.1864C64.0869 39.1198 63.3528 41.3304 63.7376 45.1335C64.0301 47.8501 66.6019 48.9703 68.9695 48.4491L69.8124 48.4522C70.8077 48.332 71.7546 47.9551 72.5601 47.3583C73.5591 46.5377 74.4851 45.632 75.3276 44.6514C77.1135 42.6789 79.0454 40.8436 81.1068 39.1612C84.3532 36.6484 91.7556 33.4406 88.7128 28.1926L88.6905 28.2202Z" fill="#FAFAFA"/>
<path d="M67.0185 58.2356C67.4513 54.8981 63.9766 51.6597 60.6567 53.2085C58.0884 54.3898 56.0574 56.4926 54.9659 59.1004C53.6864 62.3002 54.4288 66.4973 57.8826 68.0467C58.6886 68.3978 59.5719 68.5339 60.4462 68.4416C61.3205 68.3494 62.1559 68.0321 62.8709 67.5206C63.384 67.1263 63.8091 66.6292 64.1189 66.0612C64.5106 65.5287 64.7533 64.9015 64.8218 64.244L64.8419 62.9156C64.8791 63.5496 64.9208 63.6639 64.9484 63.2782C65.0681 63.0208 65.478 62.1394 65.6159 61.843C66.3416 60.7485 66.8261 59.512 67.0372 58.2158L67.0185 58.2356Z" fill="#FAFAFA"/>
</svg>
