<svg width="195" height="338" viewBox="0 0 195 338" fill="none" xmlns="http://www.w3.org/2000/svg">
<path d="M171.038 115.842C184.267 78.3423 164.592 37.2187 127.092 23.9898C89.5927 10.7608 48.4692 30.4359 35.2402 67.9354L171.038 115.842Z" fill="#FFC3D8"/>
<path d="M35.2402 67.9354C22.0113 105.435 41.6864 146.558 79.1859 159.787C116.685 173.016 157.809 153.341 171.038 115.842L35.2402 67.9354Z" fill="#FFC3D8"/>
<path d="M100.071 168.215L109.283 184.16L89.389 183.174L100.071 168.215Z" fill="#FFC3D8"/>
<path fill-rule="evenodd" clip-rule="evenodd" d="M82.9556 202.277L96.8862 184.707C97.3154 184.166 98.0878 184.044 98.6627 184.427C99.3091 184.858 99.4496 185.749 98.9671 186.357L85.1734 203.754C74.0225 217.817 71.3707 236.167 78.0813 252.83C86.5215 273.788 85.5255 296.686 75.3129 316.472L70.4478 325.898C70.1205 326.532 69.3551 326.8 68.7033 326.51C67.9968 326.195 67.7007 325.35 68.0555 324.663L72.8501 315.373C82.7607 296.172 83.7273 273.952 75.5367 253.614C68.5169 236.183 71.2909 216.988 82.9556 202.277Z" fill="#839096"/>
<path fill-rule="evenodd" clip-rule="evenodd" d="M103.682 166.57C103.638 167.285 103.024 167.829 102.309 167.785L97.6304 167.5C96.9158 167.457 96.3718 166.842 96.4153 166.127C96.4588 165.413 97.0735 164.869 97.7881 164.912L102.467 165.197C103.181 165.241 103.725 165.856 103.682 166.57Z" fill="#839096"/>
<path d="M106.867 40.9214C105.3 32.6092 91.8196 35.6591 86.5202 36.9668C82.8022 37.9138 79.2195 39.3293 75.8583 41.1793C71.3059 43.6963 69.4135 46.1359 68.2175 51.0595C67.3851 54.5841 70.1059 57.1185 73.2951 57.511L74.3474 57.8866C75.6445 58.1752 76.9943 58.1215 78.2644 57.7309C79.875 57.1456 81.4319 56.4218 82.9175 55.5676C86.0196 53.8895 89.2437 52.4474 92.5623 51.2533C97.7283 49.5439 108.396 48.7985 106.907 40.8967L106.867 40.9214Z" fill="#FAFAFA"/>
<path d="M66.5418 68.8824C68.5545 64.9014 65.6392 59.3213 60.8064 59.7933C57.0751 60.1373 53.6091 61.8702 51.0949 64.6486C48.0845 68.0841 47.1617 73.6578 50.7956 77.1175C51.6483 77.9118 52.6924 78.4714 53.826 78.7417C54.9595 79.0119 56.1437 78.9836 57.263 78.6595C58.0782 78.393 58.8287 77.9591 59.4665 77.3857C60.191 76.8928 60.7709 76.2158 61.1464 75.4241L61.7573 73.7726C61.5243 74.5814 61.526 74.7427 61.7305 74.2728C61.9937 74.0038 62.8947 73.0828 63.1978 72.7731C64.5876 71.725 65.7384 70.3931 66.5739 68.8659L66.5418 68.8824Z" fill="#FAFAFA"/>
</svg>
