<svg width="144" height="308" viewBox="0 0 144 308" fill="none" xmlns="http://www.w3.org/2000/svg">
<path d="M144 72.5366C144 32.7721 111.764 0.536621 72 0.536621C32.2355 0.536621 0 32.7721 0 72.5366H144Z" fill="#FDD878"/>
<path d="M6.29444e-06 72.5366C2.81812e-06 112.301 32.2355 144.537 72 144.537C111.765 144.537 144 112.301 144 72.5366L6.29444e-06 72.5366Z" fill="#FDD878"/>
<path d="M94.5002 145.537L108.492 157.508L89.4035 163.197L94.5002 145.537Z" fill="#FDD878"/>
<path fill-rule="evenodd" clip-rule="evenodd" d="M89.6905 183.351L96.9826 162.148C97.2072 161.495 97.8951 161.123 98.5646 161.293C99.3174 161.484 99.7464 162.278 99.4938 163.012L92.2734 184.007C86.4363 200.979 90.0403 219.166 101.912 232.647C116.844 249.603 123.522 271.528 120.474 293.585L119.022 304.092C118.924 304.799 118.292 305.307 117.58 305.25C116.809 305.187 116.249 304.49 116.355 303.723L117.786 293.368C120.744 271.964 114.263 250.688 99.7733 234.233C87.3545 220.13 83.5845 201.106 89.6905 183.351Z" fill="#839096"/>
<path fill-rule="evenodd" clip-rule="evenodd" d="M97.3561 142.783C97.5528 143.471 97.1542 144.189 96.4658 144.386L91.9587 145.673C91.2703 145.87 90.5528 145.471 90.3561 144.783C90.1594 144.095 90.5581 143.377 91.2465 143.18L95.7535 141.893C96.4419 141.696 97.1594 142.095 97.3561 142.783Z" fill="#839096"/>
<path d="M58.56 23.2314C54.3176 15.9138 42.6195 23.2748 38.057 26.2709C34.8658 28.4009 31.9582 30.9277 29.4039 33.7905C25.9481 37.6787 24.9752 40.6089 25.4852 45.6499C25.8729 49.2507 29.2818 50.7355 32.4199 50.0447L33.5373 50.0488C34.8565 49.8894 36.1116 49.3898 37.1794 48.5989C38.5035 47.5111 39.7309 46.3106 40.8477 45.0108C43.2148 42.3963 45.7755 39.9637 48.5079 37.7336C52.8109 34.403 62.6227 30.1511 58.5895 23.1949L58.56 23.2314Z" fill="#FAFAFA"/>
<path d="M29.8337 63.0149C30.4073 58.5911 25.8016 54.2986 21.4011 56.3516C17.9969 57.9173 15.3048 60.7045 13.8581 64.1611C12.1621 68.4024 13.1461 73.9657 17.7241 76.0194C18.7924 76.4847 19.9632 76.6651 21.1221 76.5429C22.281 76.4206 23.3883 76 24.3361 75.322C25.0162 74.7994 25.5796 74.1405 25.9902 73.3876C26.5095 72.6818 26.8311 71.8504 26.9219 70.9789L26.9486 69.2182C26.9979 70.0585 27.0532 70.21 27.0897 69.6988C27.2484 69.3576 27.7917 68.1893 27.9745 67.7965C28.9364 66.3456 29.5786 64.7067 29.8584 62.9886L29.8337 63.0149Z" fill="#FAFAFA"/>
</svg>
