<svg width="497" height="533" viewBox="0 0 497 533" fill="none" xmlns="http://www.w3.org/2000/svg">
<path d="M377.917 71.7529L389.87 59.3014L398.926 67.9973L377.917 71.7529Z" fill="#C9C9C9"/>
<path d="M411.969 92.4813L390.15 63.4423L378.163 71.3895L383.626 56.3102L364.799 38.5867L458.176 28.0239L411.969 92.4813Z" fill="white"/>
<path d="M383.267 57.0612L378.001 71.7898L390.199 64.418L458.193 28.0376L383.267 57.0612Z" fill="#F4F4F4"/>
<path d="M366.997 79.929C336.811 121.569 343.439 182.979 367.572 225.609C370.092 230.055 372.878 234.544 377.079 237.454C381.281 240.364 387.251 241.295 391.44 238.379C397.75 233.986 396.187 223.33 390.162 218.555C384.138 213.78 375.722 213.497 368.085 214.371C337.976 217.826 310.198 236.67 295.199 262.999C280.195 289.336 278.08 322.461 288.918 350.77C293.678 363.201 301.349 375.246 313.15 381.405C324.958 387.556 341.43 385.96 349.266 375.202C359.071 361.745 351.4 342.511 340.77 329.692C307.931 290.126 248.535 276.784 200.45 294.999C152.366 313.214 117.463 360.031 109.738 410.863C107.964 422.51 107.984 435.789 116.035 444.38C124.354 453.264 138.659 453.839 150.062 449.594C173.619 440.832 187.894 415.041 188.62 389.914C189.859 346.854 153.87 306.931 111.267 300.564C68.6581 294.205 24.2055 319.66 5.05345 358.244" stroke="#CCE9FF" stroke-miterlimit="10" stroke-linecap="round" stroke-linejoin="round" stroke-dasharray="5 5"/>
</svg>
