<svg width="18" height="18" viewBox="0 0 18 18" fill="none" xmlns="http://www.w3.org/2000/svg">
<path d="M9.00056 0.272949C6.63045 0.272949 6.33301 0.283313 5.40213 0.325677C4.47306 0.368222 3.8389 0.515313 3.28401 0.731131C2.71003 0.95404 2.22313 1.25222 1.73806 1.73749C1.25262 2.22259 0.954443 2.70949 0.730813 3.28331C0.514456 3.8384 0.367188 4.47277 0.325371 5.40149C0.283736 6.3324 0.272827 6.63004 0.272827 9.00022C0.272827 11.3704 0.283372 11.6669 0.325553 12.5979C0.368279 13.5269 0.515365 14.1611 0.730995 14.716C0.954079 15.29 1.25225 15.7769 1.73751 16.262C2.2224 16.7475 2.7093 17.0464 3.28292 17.2693C3.83817 17.4851 4.47252 17.6322 5.4014 17.6748C6.33228 17.7171 6.62954 17.7275 8.99947 17.7275C11.3698 17.7275 11.6663 17.7171 12.5972 17.6748C13.5262 17.6322 14.1611 17.4851 14.7164 17.2693C15.2902 17.0464 15.7764 16.7475 16.2613 16.262C16.7467 15.7769 17.0449 15.29 17.2685 14.7162C17.483 14.1611 17.6303 13.5268 17.6739 12.598C17.7158 11.6671 17.7267 11.3704 17.7267 9.00022C17.7267 6.63004 17.7158 6.33259 17.6739 5.40168C17.6303 4.47259 17.483 3.8384 17.2685 3.28349C17.0449 2.70949 16.7467 2.22259 16.2613 1.73749C15.7758 1.25204 15.2904 0.953858 14.7158 0.731131C14.1595 0.515313 13.525 0.368222 12.5959 0.325677C11.665 0.283313 11.3687 0.272949 8.99784 0.272949H9.00056ZM8.21768 1.84568C8.45004 1.84531 8.7093 1.84568 9.00056 1.84568C11.3307 1.84568 11.6068 1.85404 12.527 1.89586C13.3779 1.93477 13.8397 2.07695 14.1473 2.1964C14.5546 2.35459 14.8449 2.54368 15.1502 2.84913C15.4556 3.15459 15.6447 3.44549 15.8033 3.85277C15.9227 4.16004 16.0651 4.62186 16.1038 5.47277C16.1456 6.39277 16.1547 6.66913 16.1547 8.99822C16.1547 11.3273 16.1456 11.6037 16.1038 12.5237C16.0649 13.3746 15.9227 13.8364 15.8033 14.1437C15.6451 14.5509 15.4556 14.8409 15.1502 15.1462C14.8448 15.4517 14.5548 15.6408 14.1473 15.7989C13.8401 15.9189 13.3779 16.0608 12.527 16.0997C11.607 16.1415 11.3307 16.1506 9.00056 16.1506C6.67027 16.1506 6.3941 16.1415 5.47412 16.0997C4.62324 16.0604 4.16144 15.9182 3.85363 15.7988C3.44637 15.6406 3.15547 15.4515 2.85002 15.146C2.54458 14.8406 2.35549 14.5504 2.19695 14.1429C2.0775 13.8357 1.93514 13.3739 1.89641 12.5229C1.8546 11.6029 1.84623 11.3266 1.84623 8.99604C1.84623 6.66549 1.8546 6.39059 1.89641 5.47059C1.93532 4.61968 2.0775 4.15786 2.19695 3.85022C2.35513 3.44295 2.54458 3.15204 2.85002 2.84659C3.15547 2.54113 3.44637 2.35204 3.85363 2.19349C4.16126 2.07349 4.62324 1.93168 5.47412 1.89259C6.27919 1.85622 6.59118 1.84531 8.21768 1.84349V1.84568ZM13.659 3.29477C13.0808 3.29477 12.6117 3.76331 12.6117 4.34168C12.6117 4.91986 13.0808 5.38895 13.659 5.38895C14.2371 5.38895 14.7062 4.91986 14.7062 4.34168C14.7062 3.76349 14.2371 3.2944 13.659 3.2944V3.29477ZM9.00056 4.5184C6.52555 4.5184 4.51888 6.52513 4.51888 9.00022C4.51888 11.4753 6.52555 13.4811 9.00056 13.4811C11.4756 13.4811 13.4815 11.4753 13.4815 9.00022C13.4815 6.52513 11.4754 4.5184 9.00038 4.5184H9.00056ZM9.00056 6.09113C10.6071 6.09113 11.9096 7.39349 11.9096 9.00022C11.9096 10.6068 10.6071 11.9093 9.00056 11.9093C7.39388 11.9093 6.09156 10.6068 6.09156 9.00022C6.09156 7.39349 7.39388 6.09113 9.00056 6.09113Z" fill="white" fill-opacity="0.75"/>
</svg>
