<svg width="661" height="570" viewBox="0 0 661 570" fill="none" xmlns="http://www.w3.org/2000/svg">
<path d="M119.457 432.867C119.457 432.867 74.5699 433.646 63.6771 427.597C52.7842 421.548 61.5573 416.373 61.5573 416.373C61.5573 416.373 37.6003 409.054 36.4789 401.336C35.3575 393.619 46.7238 395.37 46.7238 395.37C46.7238 395.37 24.6862 377.777 28.3369 372.966C35.1462 364.036 60.4786 382.15 60.4786 382.15C60.4786 382.15 52.254 372.852 58.6526 370.004C68.2902 365.695 80.359 390.099 80.359 390.099C80.359 390.099 76.6487 380.275 83.8441 380.39C96.7278 380.574 119.457 432.867 119.457 432.867Z" fill="#81B4DA"/>
<path d="M83.9407 375.591C78.2595 375.416 77.552 384.838 77.552 384.838C77.552 384.838 68.2831 365.71 58.6439 370.019C52.2443 372.868 60.4691 382.163 60.4691 382.163C60.4691 382.163 35.1532 364.063 28.3244 372.984L119.303 432.442C116.612 426.401 95.1692 375.942 83.9407 375.591Z" fill="#D2E7F3"/>
<path d="M118.651 433.557C118.651 433.557 91.2417 452.277 82.0041 452.941C72.7485 453.595 76.1292 446.788 76.1292 446.788C76.1292 446.788 58.2104 451.982 54.3684 447.621C50.5265 443.259 58.2647 439.799 58.2647 439.799C58.2647 439.799 37.4549 437.722 37.7927 433.248C38.4209 424.897 61.5553 425.889 61.5553 425.889C61.5553 425.889 52.6604 423.434 55.4774 419.06C59.7338 412.457 77.1774 422.77 77.1774 422.77C77.1774 422.77 74.6462 419.315 79.1815 416.467C87.2949 411.326 118.651 433.557 118.651 433.557Z" fill="#81B4DA"/>
<path d="M77.9406 413.64C73.4143 416.514 77.1508 422.778 77.1508 422.778C77.1508 422.778 58.0921 409.725 53.8355 416.327C51.0183 420.701 59.6645 425.853 59.6645 425.853C59.6645 425.853 38.3931 424.906 37.7647 433.256L118.641 433.349C114.531 430.677 85.5497 408.852 77.9406 413.64Z" fill="#D2E7F3"/>
<path d="M549.132 482.422C549.132 482.422 599.356 453.636 607.429 439.723C615.501 425.83 602.345 425.879 602.345 425.879C602.345 425.879 624.047 401.932 620.195 392.646C616.342 383.359 604.898 392.805 604.898 392.805C604.898 392.805 617.679 358.735 610.458 355.829C596.993 350.428 580.922 387.228 580.922 387.228C580.922 387.228 583.876 371.496 574.921 372.558C561.409 374.167 564.17 409.169 564.17 409.169C564.17 409.169 561.795 395.823 553.89 400.694C539.725 409.442 549.132 482.422 549.132 482.422Z" fill="#81B4DA"/>
<path d="M550.584 395.469C556.75 391.523 563.756 401.484 563.756 401.484C563.756 401.484 561.393 374.156 574.928 372.539C583.884 371.47 580.919 387.203 580.919 387.203C580.919 387.203 597.016 350.394 610.479 355.784L548.951 481.829C547.918 473.367 538.376 403.287 550.584 395.469Z" fill="#D2E7F3"/>
<path d="M548.902 482.406C548.902 482.406 591.544 486.263 602.375 481.197C613.206 476.131 605.138 470.589 605.138 470.589C605.138 470.589 628.582 465.163 630.163 457.851C631.744 450.539 620.859 451.487 620.859 451.487C620.859 451.487 643.003 436.066 639.791 431.229C633.832 422.217 608.401 437.891 608.401 437.891C608.401 437.891 616.881 429.53 610.95 426.372C602.006 421.605 588.847 444.193 588.847 444.193C588.847 444.193 589.518 438.713 582.63 438.344C570.251 437.638 548.902 482.406 548.902 482.406Z" fill="#81B4DA"/>
<path d="M582.214 434.369C589.121 434.739 588.852 444.175 588.852 444.175C588.852 444.175 602.115 417.477 611.059 422.245C616.99 425.403 610.484 436.64 610.484 436.64C610.484 436.64 633.836 422.201 639.795 431.213L548.781 482.16C551.734 476.556 570.648 433.743 582.214 434.369Z" fill="#D2E7F3"/>
<path d="M596.59 501.432C610.371 408.269 577.214 216.394 554.14 189.47C523.503 153.695 498.911 213.33 474.833 165.983C464.343 145.322 463.403 136.098 441.717 119.249C411.251 95.5923 388.283 118.738 356.513 76.9054C292.739 -7.10084 126.668 15.943 128.634 170.715C129.681 253.427 83.4896 227.694 84.3442 302.715C84.6005 325.35 109.683 350.062 78.3192 406.157C62.9577 433.659 63.4278 470.727 67.9144 501.395L544.099 501.395L596.59 501.432Z" fill="#EAFCFC"/>
<path d="M506.136 460.576C504.165 460.475 502.631 458.778 502.729 456.805C502.826 454.832 504.518 453.3 506.489 453.401C508.46 453.502 509.994 455.199 509.897 457.172C509.8 459.145 508.107 460.677 506.136 460.576ZM506.444 454.318C504.97 454.243 503.717 455.377 503.644 456.852C503.572 458.327 504.708 459.584 506.181 459.659C507.655 459.735 508.908 458.6 508.981 457.125C509.053 455.651 507.917 454.394 506.444 454.318Z" fill="#F7CC7F"/>
<path d="M234.995 246.813C232.108 246.665 229.874 244.193 230.017 241.304C230.159 238.414 232.624 236.183 235.511 236.331C238.397 236.478 240.631 238.95 240.489 241.84C240.347 244.729 237.882 246.961 234.995 246.813ZM235.446 237.646C233.296 237.536 231.457 239.2 231.351 241.352C231.246 243.504 232.911 245.348 235.062 245.458C237.212 245.568 239.05 243.904 239.156 241.752C239.261 239.619 237.596 237.756 235.446 237.646Z" fill="#F47458"/>
<path d="M109.694 401.058C107.782 400.96 106.286 399.325 106.381 397.392C106.476 395.459 108.105 393.984 110.037 394.082C111.948 394.18 113.445 395.815 113.35 397.749C113.255 399.682 111.605 401.156 109.694 401.058ZM109.993 394.979C108.559 394.906 107.346 396.023 107.277 397.438C107.207 398.853 108.324 400.089 109.738 400.161C111.171 400.235 112.384 399.118 112.454 397.703C112.523 396.288 111.426 395.053 109.993 394.979Z" fill="#81B4DA"/>
<path opacity="0.5" d="M161.22 295.227C159.926 295.16 158.923 294.05 158.987 292.754C159.05 291.459 160.158 290.457 161.452 290.523C162.746 290.589 163.749 291.7 163.686 292.995C163.622 294.29 162.515 295.293 161.22 295.227ZM161.422 291.121C160.447 291.071 159.632 291.808 159.584 292.785C159.536 293.762 160.274 294.579 161.25 294.629C162.226 294.679 163.04 293.941 163.088 292.964C163.136 291.988 162.378 291.17 161.422 291.121Z" fill="#F47458"/>
<path d="M272.084 359.028C269.933 358.918 268.267 357.074 268.373 354.922C268.479 352.769 270.317 351.105 272.468 351.215C274.618 351.325 276.284 353.169 276.178 355.321C276.072 357.474 274.234 359.138 272.084 359.028ZM272.419 352.212C270.806 352.129 269.427 353.377 269.348 354.992C269.268 356.606 270.518 357.989 272.131 358.071C273.743 358.154 275.122 356.906 275.202 355.291C275.262 353.656 274.032 352.294 272.419 352.212Z" fill="#F7CC7F"/>
<path d="M379.108 510.797C376.221 510.649 373.987 508.178 374.129 505.288C374.271 502.399 376.736 500.167 379.623 500.315C382.51 500.463 384.744 502.935 384.602 505.824C384.46 508.714 381.995 510.945 379.108 510.797ZM379.558 501.65C377.407 501.54 375.569 503.204 375.463 505.356C375.357 507.509 377.023 509.352 379.173 509.462C381.324 509.572 383.162 507.908 383.268 505.756C383.393 503.605 381.728 501.761 379.558 501.65Z" fill="#F47458"/>
<path d="M268.556 173.341H216.283C217.905 172.322 219.697 171.698 221.593 171.387C219.838 168.291 219.452 164.514 220.178 161.031C220.904 157.548 223.187 154.347 226.384 152.78C229.582 151.213 233.657 151.43 236.505 153.554C237.137 149.854 238.986 146.2 241.919 143.85C244.853 141.509 249.041 140.602 252.502 142.056C255.756 143.415 257.992 146.663 258.718 150.118C259.444 153.573 258.812 157.198 257.577 160.512C259.039 159.983 260.68 160.465 261.821 161.522C262.963 162.579 263.585 164.099 263.84 165.628C264.094 167.158 264.01 168.725 263.925 170.282C265.16 171.208 267.33 172.425 268.556 173.341Z" fill="white"/>
<path d="M452.557 168.206H408.518C410.32 168.206 412.338 166.601 414.036 166.006C411.763 161.191 413.395 154.838 417.394 151.326C421.384 147.805 427.751 147.324 432.231 150.194C434.325 147.852 437.117 146.144 440.22 146.587C443.323 147.031 445.643 149.863 446.474 152.884C447.304 155.905 446.936 159.115 446.558 162.23C448.681 163.74 451.378 165.864 452.557 168.206Z" fill="white"/>
<path d="M173.638 223.893H232.429C230.599 222.741 228.59 222.043 226.458 221.693C228.429 218.21 228.873 213.971 228.043 210.044C227.222 206.126 224.656 202.53 221.063 200.774C217.469 199.009 212.885 199.254 209.678 201.652C208.971 197.489 206.886 193.382 203.594 190.739C200.302 188.096 195.586 187.085 191.691 188.719C188.031 190.248 185.513 193.901 184.702 197.791C183.881 201.68 184.588 205.758 185.984 209.478C184.343 208.883 182.485 209.421 181.212 210.611C179.929 211.8 179.231 213.509 178.938 215.236C178.656 216.964 178.75 218.72 178.844 220.466C177.467 221.495 175.024 222.855 173.638 223.893Z" fill="white"/>
<path d="M417.176 237.506H523.618C519.742 236.109 514.479 233.201 510.602 231.814C513.328 228.34 512.356 222.572 509.81 218.965C507.263 215.359 502.254 213.726 498.076 215.133C497.331 208.751 495.35 202.388 492.153 196.819C488.955 191.249 484.097 186.5 478.117 184.178C472.137 181.856 465.007 182.186 459.649 185.717C454.292 189.247 451.122 196.139 452.641 202.379C447.821 199.924 440.483 201.945 436.908 205.985C433.324 210.035 432.89 216.539 435.899 221.023C433.446 220.108 430.324 221.476 428.579 223.431C426.844 225.385 426.448 228.424 427.636 230.756C424.533 232.776 420.279 235.486 417.176 237.506Z" fill="white"/>
<path d="M366.985 144.86C367.239 145.521 368.324 145.238 368.06 144.568C367.117 142.142 364.429 141.113 361.976 141.433C359.062 141.811 356.826 144.001 354.883 146.05C352.94 144.001 350.695 141.811 347.79 141.433C345.338 141.113 342.65 142.151 341.706 144.568C341.442 145.238 342.527 145.531 342.782 144.86C343.574 142.831 346.168 142.17 348.12 142.614C350.714 143.199 352.667 145.313 354.412 147.173C354.553 147.324 354.723 147.362 354.883 147.324C355.044 147.362 355.213 147.324 355.355 147.173C357.109 145.313 359.052 143.199 361.646 142.614C363.599 142.17 366.192 142.821 366.985 144.86Z" fill="#1B1B28"/>
<path d="M368.486 156.339C367.561 156.678 366.826 157.32 366.146 158.009C365.269 157.273 364.279 156.66 363.204 156.254C362.6 156.027 361.892 155.904 361.26 156.131C360.676 156.348 360.176 156.792 360.034 157.415C359.874 158.113 360.949 158.415 361.11 157.707C361.327 156.754 362.656 157.207 363.232 157.462C364.147 157.877 364.996 158.434 365.741 159.114C365.769 159.142 365.807 159.152 365.845 159.171C366.043 159.341 366.344 159.397 366.58 159.152C367.212 158.5 367.863 157.792 368.712 157.434C369.344 157.169 370.212 157.094 370.768 157.566C371.004 157.755 371.334 157.792 371.56 157.566C371.759 157.368 371.796 156.971 371.56 156.773C370.693 156.065 369.514 155.951 368.486 156.339Z" fill="#1B1B28"/>
<path d="M387.689 150.779C386.586 150.024 385.152 149.769 383.86 150.118C382.86 150.392 381.992 151.025 381.37 151.855C380.559 151.062 379.663 150.317 378.54 150.052C377.333 149.769 376.031 150.128 375.324 151.185C374.918 151.78 375.89 152.346 376.286 151.751C376.776 151.025 377.757 150.958 378.512 151.204C379.502 151.525 380.266 152.318 380.983 153.045C381.115 153.177 381.266 153.224 381.408 153.205C381.606 153.243 381.832 153.177 381.955 152.941C382.417 152.091 383.2 151.449 384.133 151.194C385.162 150.911 386.237 151.147 387.105 151.742C387.35 151.912 387.727 151.789 387.869 151.544C388.048 151.261 387.935 150.949 387.689 150.779Z" fill="#1B1B28"/>
<path d="M332.628 91.0944H329.157V128.622H332.628V91.0944Z" fill="#7E7E7E"/>
<path d="M388.871 93.4912C370.123 118.647 351.375 68.3351 332.628 93.4912C332.628 99.0851 332.628 104.679 332.628 110.24C351.375 85.084 370.123 135.396 388.871 110.24L384.546 106.02L388.871 93.4912Z" fill="#FF8573"/>
<path d="M559.916 274.777H458.008V487.532H559.916V274.777Z" fill="#EEDEDA"/>
<path d="M566.492 291.325H451.561L430.526 202.89H541.884L571.02 283.907C572.554 287.369 570.138 291.325 566.492 291.325Z" fill="#9CB3B6"/>
<path d="M541.887 204.102L416.485 204.628L413.012 193.729L534.192 194.41C538.442 194.41 541.887 197.041 541.887 200.287V204.102Z" fill="#9CB3B6"/>
<g opacity="0.89">
<path opacity="0.71" d="M538.146 417.319H480.43C480.324 417.319 480.238 417.233 480.238 417.126V327.864C480.238 327.758 480.324 327.672 480.43 327.672H538.146C538.252 327.672 538.338 327.758 538.338 327.864V417.126C538.338 417.231 538.252 417.319 538.146 417.319Z" fill="white"/>
<g opacity="0.89">
<path opacity="0.89" d="M506.927 412.473H484.585C484.526 412.473 484.478 412.425 484.478 412.367V332.625C484.478 332.567 484.526 332.519 484.585 332.519H506.927C506.986 332.519 507.034 332.567 507.034 332.625V412.367C507.034 412.425 506.988 412.473 506.927 412.473Z" fill="white"/>
<path opacity="0.89" d="M533.999 412.473H511.657C511.598 412.473 511.55 412.425 511.55 412.367V332.625C511.55 332.567 511.598 332.519 511.657 332.519H533.999C534.058 332.519 534.106 332.567 534.106 332.625V412.367C534.106 412.425 534.058 412.473 533.999 412.473Z" fill="white"/>
</g>
</g>
<path d="M103.976 492.895H204.133V274.777H102.225V490.954C102.225 492.027 103.009 492.895 103.976 492.895Z" fill="#EEDCD8"/>
<path d="M95.9896 291.325H210.963L252.006 197.36L120.606 202.889L91.4599 283.907C89.926 287.369 92.3418 291.325 95.9896 291.325Z" fill="#9CB3B6"/>
<path d="M120.604 204.102L253.743 201.904L264.166 192.819L128.897 194.41C124.317 194.41 120.604 197.04 120.604 200.286V204.102Z" fill="#9CB3B6"/>
<g opacity="0.89">
<path opacity="0.71" d="M123.74 417.319H181.455C181.561 417.319 181.647 417.233 181.647 417.126V327.864C181.647 327.758 181.561 327.672 181.455 327.672H123.74C123.633 327.672 123.548 327.758 123.548 327.864V417.126C123.546 417.231 123.633 417.319 123.74 417.319Z" fill="white"/>
<g opacity="0.89">
<path opacity="0.89" d="M154.957 412.473H177.3C177.358 412.473 177.406 412.425 177.406 412.367V332.625C177.406 332.567 177.358 332.519 177.3 332.519H154.957C154.899 332.519 154.851 332.567 154.851 332.625V412.367C154.849 412.425 154.897 412.473 154.957 412.473Z" fill="white"/>
<path opacity="0.89" d="M127.887 412.473H150.23C150.288 412.473 150.336 412.425 150.336 412.367V332.625C150.336 332.567 150.288 332.519 150.23 332.519H127.887C127.829 332.519 127.781 332.567 127.781 332.625V412.367C127.779 412.425 127.827 412.473 127.887 412.473Z" fill="white"/>
</g>
</g>
<path d="M330.939 151.619C330.939 151.619 193.095 255.771 189.681 255.771V472.144C189.681 476.087 192.874 479.283 196.814 479.283H465.876C469.367 479.283 472.197 476.449 472.197 472.956V255.771L330.939 151.619Z" fill="#F2E6E4"/>
<path d="M368.418 470.617H280.824V456.29C280.824 455.99 281.068 455.746 281.368 455.746H367.874C368.174 455.746 368.418 455.99 368.418 456.29V470.617Z" fill="#9CB3B6"/>
<path d="M381.9 482.354H264.008V468.185C264.008 467.888 264.336 467.647 264.74 467.647H381.168C381.572 467.647 381.9 467.888 381.9 468.185V482.354Z" fill="#8C9A9D"/>
<path d="M354.518 455.747H294.732V339.628C294.732 339.29 295.005 339.016 295.343 339.016H353.907C354.245 339.016 354.518 339.29 354.518 339.628V455.747Z" fill="#98682B"/>
<path opacity="0.67" d="M350.296 331.16H298.953C296.621 331.16 294.732 329.267 294.732 326.935V323.245C294.732 321.025 296.448 319.184 298.661 319.031L350.004 315.461C352.446 315.291 354.518 317.228 354.518 319.675V326.935C354.518 329.267 352.627 331.16 350.296 331.16Z" fill="white"/>
<path d="M316.321 424.366H307.298C304.289 424.366 301.842 421.916 301.842 418.906V352.143C301.842 349.131 304.29 346.682 307.298 346.682H316.321C319.331 346.682 321.777 349.133 321.777 352.143V418.906C321.777 421.918 319.329 424.366 316.321 424.366ZM307.298 347.336C304.651 347.336 302.497 349.492 302.497 352.141V418.906C302.497 421.555 304.651 423.71 307.298 423.71H316.321C318.969 423.71 321.122 421.555 321.122 418.906V352.143C321.122 349.493 318.969 347.338 316.321 347.338H307.298V347.336Z" fill="white"/>
<path d="M341.499 424.366H332.476C329.466 424.366 327.02 421.916 327.02 418.906V352.143C327.02 349.131 329.468 346.682 332.476 346.682H341.499C344.508 346.682 346.955 349.133 346.955 352.143V418.906C346.957 421.918 344.508 424.366 341.499 424.366ZM332.476 347.336C329.828 347.336 327.675 349.492 327.675 352.141V418.906C327.675 421.555 329.828 423.71 332.476 423.71H341.499C344.146 423.71 346.3 421.555 346.3 418.906V352.143C346.3 349.493 344.146 347.338 341.499 347.338H332.476V347.336Z" fill="white"/>
<path d="M316.321 446.878H307.298C304.289 446.878 301.842 444.428 301.842 441.418V433.738C301.842 430.726 304.29 428.277 307.298 428.277H316.321C319.331 428.277 321.777 430.728 321.777 433.738V441.418C321.777 444.428 319.329 446.878 316.321 446.878ZM307.298 428.932C304.651 428.932 302.497 431.087 302.497 433.736V441.416C302.497 444.066 304.651 446.221 307.298 446.221H316.321C318.969 446.221 321.122 444.066 321.122 441.416V433.736C321.122 431.087 318.969 428.932 316.321 428.932H307.298Z" fill="white"/>
<path d="M341.499 446.878H332.476C329.466 446.878 327.02 444.428 327.02 441.418V433.738C327.02 430.726 329.468 428.277 332.476 428.277H341.499C344.508 428.277 346.955 430.728 346.955 433.738V441.418C346.957 444.428 344.508 446.878 341.499 446.878ZM332.476 428.932C329.828 428.932 327.675 431.087 327.675 433.736V441.416C327.675 444.066 329.828 446.221 332.476 446.221H341.499C344.146 446.221 346.3 444.066 346.3 441.416V433.736C346.3 431.087 344.146 428.932 341.499 428.932H332.476Z" fill="white"/>
<path opacity="0.9" d="M243.654 302.88H243.175C230.736 302.88 219.846 311.694 219.846 324.144V346.566H243.654V302.88Z" fill="white"/>
<path opacity="0.9" d="M219.846 353.183V419.145C219.846 421.365 222.451 424.81 224.671 424.81H243.655V353.183H219.846Z" fill="white"/>
<path opacity="0.9" d="M250.155 302.88H248.945V346.565H272.752V324.143C272.752 311.694 262.594 302.88 250.155 302.88Z" fill="white"/>
<path opacity="0.9" d="M248.945 424.81H268.66C270.879 424.81 272.754 421.367 272.754 419.145V353.183H248.946V424.81H248.945Z" fill="white"/>
<path d="M274.844 428.929H217.533C214.246 428.929 211.573 426.253 211.573 422.964V323.651C211.573 307.946 224.339 295.17 240.031 295.17H252.346C268.037 295.17 280.803 307.946 280.803 323.651V422.964C280.803 426.253 278.131 428.929 274.844 428.929ZM240.031 295.722C224.643 295.722 212.125 308.252 212.125 323.651V422.964C212.125 425.949 214.551 428.376 217.533 428.376H274.844C277.826 428.376 280.251 425.949 280.251 422.964V323.651C280.251 308.25 267.732 295.722 252.346 295.722H240.031Z" fill="white"/>
<path opacity="0.9" d="M405.634 302.88H405.155C392.716 302.88 381.826 311.695 381.826 324.145V346.566H405.634V302.88Z" fill="white"/>
<path opacity="0.9" d="M381.826 353.185V419.147C381.826 421.368 384.431 424.812 386.651 424.812H405.635V353.185H381.826Z" fill="white"/>
<path opacity="0.9" d="M412.135 302.88H410.925V346.565H434.733V324.143C434.733 311.695 424.574 302.88 412.135 302.88Z" fill="white"/>
<path opacity="0.9" d="M410.925 424.812H430.641C432.859 424.812 434.734 421.369 434.734 419.147V353.185H410.926V424.812H410.925Z" fill="white"/>
<path d="M436.821 428.929H379.51C376.223 428.929 373.551 426.252 373.551 422.964V323.651C373.551 307.946 386.317 295.169 402.008 295.169H414.323C430.015 295.169 442.781 307.946 442.781 323.651V422.964C442.781 426.252 440.108 428.929 436.821 428.929ZM402.008 295.722C386.62 295.722 374.103 308.251 374.103 323.651V422.964C374.103 425.949 376.528 428.376 379.51 428.376H436.821C439.803 428.376 442.229 425.949 442.229 422.964V323.651C442.229 308.25 429.71 295.722 414.323 295.722H402.008Z" fill="white"/>
<path d="M416.165 153.892H392.796V191.973H416.165V153.892Z" fill="#9CB3B6"/>
<path d="M423.864 160.063H386.093V149.416C386.093 148.837 386.561 148.369 387.139 148.369H422.273C423.152 148.369 423.865 149.081 423.865 149.962V160.063H423.864Z" fill="#9CB3B6"/>
<path d="M177.239 257.479C179.144 262.121 184.934 263.684 188.913 260.63L330.937 151.618L473.245 262.094C478.418 266.109 486.005 263.298 487.316 256.879L488.833 249.452C489.126 248.019 488.573 246.545 487.41 245.659L330.937 126.361L177.638 243.552C174.893 245.65 173.898 249.33 175.209 252.529L177.239 257.479Z" fill="#9CB3B6"/>
<path fill-rule="evenodd" clip-rule="evenodd" d="M330.94 126.362L487.413 245.66C488.576 246.546 489.128 248.02 488.836 249.453L487.319 256.88C486.008 263.299 478.421 266.11 473.248 262.095L330.94 151.619L188.916 260.631C184.937 263.685 179.146 262.122 177.242 257.48L175.211 252.53C173.901 249.331 174.896 245.651 177.641 243.553L330.94 126.362ZM174.561 239.516L330.936 119.974L490.488 241.619C493.2 243.687 494.49 247.126 493.808 250.47L492.291 257.897C490.226 268.005 478.281 272.428 470.138 266.109L470.138 266.108L330.922 158.033L192.004 264.661C185.373 269.751 175.722 267.146 172.548 259.409L170.516 254.457C168.336 249.135 169.991 243.01 174.561 239.516Z" fill="white"/>
<path d="M328.778 235.959C342.994 235.959 354.518 224.425 354.518 210.196C354.518 195.968 342.994 184.434 328.778 184.434C314.562 184.434 303.038 195.968 303.038 210.196C303.038 224.425 314.562 235.959 328.778 235.959Z" fill="#B78F82"/>
<path d="M327.486 233.382C341.702 233.382 353.227 221.848 353.227 207.62C353.227 193.391 341.702 181.857 327.486 181.857C313.27 181.857 301.746 193.391 301.746 207.62C301.746 221.848 313.27 233.382 327.486 233.382Z" fill="white"/>
<path d="M327.489 229.516C339.573 229.516 349.369 219.712 349.369 207.618C349.369 195.524 339.573 185.72 327.489 185.72C315.406 185.72 305.61 195.524 305.61 207.618C305.61 219.712 315.406 229.516 327.489 229.516Z" fill="#F5F5E1"/>
<path d="M329.356 188.667H325.624V192.402H329.356V188.667Z" fill="#B78F82"/>
<path d="M329.356 222.814H325.624V226.549H329.356V222.814Z" fill="#B78F82"/>
<path d="M346.412 209.487V205.751H342.68V209.487H346.412Z" fill="#B78F82"/>
<path d="M312.292 209.474V205.738H308.56V209.474H312.292Z" fill="#B78F82"/>
<path d="M337.679 193.675V197.41H341.412V193.675H337.679Z" fill="#B78F82"/>
<path d="M313.559 217.812V221.548H317.292V217.812H313.559Z" fill="#B78F82"/>
<path d="M341.414 217.817H337.682V221.552H341.414V217.817Z" fill="#B78F82"/>
<path d="M317.298 193.666H313.566V197.402H317.298V193.666Z" fill="#B78F82"/>
<path d="M329.969 206.742L333.109 200.147L329.75 198.536L326.61 205.119L315.735 199.902L314.113 203.264L328.36 210.104L329.969 206.742Z" fill="#B78F82"/>
<path d="M263.677 248.708L391.337 252.73V288.932L263.677 290.824V248.708Z" fill="#EAD4D1"/>
<path fill-rule="evenodd" clip-rule="evenodd" d="M263.677 248.708V290.824L391.337 288.932V252.73L263.677 248.708ZM264.945 250.018V289.536L390.068 287.681V253.961L264.945 250.018Z" fill="white"/>
<path d="M281.409 261.918H287.681C289.238 261.918 290.449 262.297 291.315 263.055C292.181 263.8 292.614 264.823 292.614 266.123C292.614 267.423 292.174 268.452 291.295 269.211C290.428 269.969 289.224 270.349 287.681 270.349H284.028V276.382H281.409V261.918ZM287.377 268.317C288.284 268.317 288.967 268.134 289.427 267.769C289.901 267.389 290.138 266.848 290.138 266.143C290.138 265.425 289.907 264.884 289.447 264.518C288.987 264.139 288.297 263.949 287.377 263.949H284.028V268.317H287.377Z" fill="white"/>
<path d="M300.1 265.879C300.493 265.879 300.831 265.933 301.115 266.042L301.095 268.358C300.662 268.182 300.215 268.094 299.755 268.094C298.889 268.094 298.226 268.344 297.766 268.845C297.319 269.346 297.096 270.01 297.096 270.836V276.382H294.579V269.028C294.579 267.945 294.525 266.976 294.417 266.123H296.792L296.995 267.931C297.252 267.267 297.658 266.76 298.212 266.407C298.767 266.055 299.396 265.879 300.1 265.879Z" fill="white"/>
<path d="M311.333 271.385H304.269C304.324 272.482 304.594 273.294 305.081 273.823C305.582 274.337 306.32 274.595 307.294 274.595C308.417 274.595 309.459 274.229 310.42 273.497L311.151 275.245C310.663 275.637 310.061 275.956 309.344 276.199C308.64 276.43 307.923 276.545 307.192 276.545C305.514 276.545 304.195 276.071 303.234 275.123C302.273 274.175 301.793 272.874 301.793 271.222C301.793 270.179 302.003 269.252 302.422 268.439C302.842 267.626 303.43 266.997 304.188 266.55C304.946 266.089 305.805 265.859 306.766 265.859C308.173 265.859 309.283 266.319 310.095 267.24C310.92 268.148 311.333 269.401 311.333 270.999V271.385ZM306.827 267.687C306.15 267.687 305.596 267.89 305.163 268.297C304.743 268.689 304.472 269.265 304.351 270.024H309.121C309.039 269.252 308.803 268.669 308.41 268.276C308.031 267.884 307.504 267.687 306.827 267.687Z" fill="white"/>
<path d="M317.269 276.545C315.415 276.545 313.94 276.111 312.844 275.245L313.554 273.457C314.65 274.269 315.902 274.676 317.309 274.676C317.918 274.676 318.385 274.574 318.71 274.371C319.048 274.168 319.217 273.883 319.217 273.518C319.217 273.206 319.102 272.963 318.872 272.786C318.642 272.597 318.25 272.434 317.695 272.299L315.99 271.913C314.122 271.507 313.189 270.552 313.189 269.048C313.189 268.425 313.365 267.877 313.716 267.403C314.068 266.915 314.562 266.536 315.198 266.265C315.834 265.994 316.572 265.859 317.411 265.859C318.142 265.859 318.845 265.974 319.522 266.204C320.198 266.421 320.794 266.739 321.308 267.159L320.557 268.886C319.529 268.127 318.473 267.748 317.39 267.748C316.809 267.748 316.355 267.857 316.03 268.073C315.706 268.29 315.543 268.588 315.543 268.967C315.543 269.265 315.638 269.502 315.828 269.678C316.03 269.854 316.369 270.003 316.842 270.125L318.588 270.511C319.603 270.741 320.34 271.1 320.801 271.588C321.274 272.062 321.511 272.685 321.511 273.457C321.511 274.405 321.132 275.157 320.374 275.712C319.617 276.267 318.581 276.545 317.269 276.545Z" fill="white"/>
<path d="M328.362 276.545C327.293 276.545 326.366 276.328 325.582 275.895C324.797 275.461 324.195 274.852 323.775 274.066C323.356 273.267 323.146 272.333 323.146 271.263C323.146 270.193 323.362 269.252 323.795 268.439C324.242 267.626 324.864 266.997 325.663 266.55C326.475 266.089 327.408 265.859 328.464 265.859C329.195 265.859 329.898 265.974 330.575 266.204C331.265 266.434 331.813 266.753 332.219 267.159L331.509 268.947C331.076 268.595 330.616 268.331 330.128 268.155C329.641 267.965 329.161 267.87 328.687 267.87C327.767 267.87 327.05 268.161 326.536 268.744C326.021 269.312 325.764 270.139 325.764 271.222C325.764 272.306 326.015 273.132 326.515 273.701C327.03 274.269 327.754 274.554 328.687 274.554C329.161 274.554 329.641 274.459 330.128 274.269C330.616 274.08 331.076 273.809 331.509 273.457L332.219 275.245C331.786 275.651 331.225 275.969 330.534 276.199C329.844 276.43 329.12 276.545 328.362 276.545Z" fill="white"/>
<path d="M339.821 265.859C342.27 265.859 343.495 267.267 343.495 270.084V276.382H340.957V270.206C340.957 269.394 340.802 268.805 340.491 268.439C340.179 268.06 339.699 267.87 339.049 267.87C338.278 267.87 337.656 268.121 337.182 268.622C336.708 269.109 336.471 269.759 336.471 270.572V276.382H333.955V261.43H336.471V267.606C336.823 267.051 337.29 266.624 337.872 266.326C338.454 266.015 339.104 265.859 339.821 265.859Z" fill="white"/>
<path d="M350.865 276.545C349.823 276.545 348.903 276.328 348.104 275.895C347.32 275.461 346.711 274.845 346.278 274.046C345.858 273.233 345.648 272.285 345.648 271.202C345.648 270.118 345.858 269.177 346.278 268.378C346.711 267.565 347.32 266.942 348.104 266.509C348.903 266.076 349.823 265.859 350.865 265.859C351.893 265.859 352.8 266.076 353.585 266.509C354.37 266.942 354.972 267.565 355.392 268.378C355.825 269.177 356.041 270.118 356.041 271.202C356.041 272.285 355.825 273.233 355.392 274.046C354.972 274.845 354.37 275.461 353.585 275.895C352.8 276.328 351.893 276.545 350.865 276.545ZM350.845 274.554C351.711 274.554 352.367 274.276 352.814 273.721C353.274 273.152 353.504 272.312 353.504 271.202C353.504 270.105 353.274 269.272 352.814 268.703C352.354 268.121 351.704 267.829 350.865 267.829C350.013 267.829 349.356 268.121 348.896 268.703C348.436 269.272 348.206 270.105 348.206 271.202C348.206 272.312 348.429 273.152 348.876 273.721C349.336 274.276 349.992 274.554 350.845 274.554Z" fill="white"/>
<path d="M362.909 276.545C361.867 276.545 360.947 276.328 360.149 275.895C359.364 275.461 358.755 274.845 358.322 274.046C357.902 273.233 357.693 272.285 357.693 271.202C357.693 270.118 357.902 269.177 358.322 268.378C358.755 267.565 359.364 266.942 360.149 266.509C360.947 266.076 361.867 265.859 362.909 265.859C363.938 265.859 364.844 266.076 365.629 266.509C366.414 266.942 367.016 267.565 367.436 268.378C367.869 269.177 368.085 270.118 368.085 271.202C368.085 272.285 367.869 273.233 367.436 274.046C367.016 274.845 366.414 275.461 365.629 275.895C364.844 276.328 363.938 276.545 362.909 276.545ZM362.889 274.554C363.755 274.554 364.411 274.276 364.858 273.721C365.318 273.152 365.548 272.312 365.548 271.202C365.548 270.105 365.318 269.272 364.858 268.703C364.398 268.121 363.748 267.829 362.909 267.829C362.057 267.829 361.4 268.121 360.94 268.703C360.48 269.272 360.25 270.105 360.25 271.202C360.25 272.312 360.473 273.152 360.92 273.721C361.38 274.276 362.036 274.554 362.889 274.554Z" fill="white"/>
<path d="M370.305 261.43H372.822V276.382H370.305V261.43Z" fill="white"/>
<path d="M249.423 341.57C250.297 348.384 251.229 355.192 252.067 362.013C253.729 375.446 255.224 388.894 256.561 402.363C259.248 429.424 261.278 456.551 262.672 483.715C262.824 486.672 267.419 486.68 267.267 483.715C266.559 469.941 265.692 456.182 264.659 442.43C262.817 417.985 260.44 393.584 257.543 369.241C256.821 363.159 256.062 357.076 255.267 350.994C254.487 345.006 253.143 338.815 253.526 332.748C253.808 328.311 255.788 323.208 260.187 321.395C263.388 320.069 269.081 322.171 268.438 326.412C268.438 326.426 268.438 326.441 268.438 326.448C263.373 326.723 260.238 327.093 260.238 327.093L263.294 340.446C263.294 340.446 273.43 340.193 283.927 340.649C285.046 350.124 286.108 359.606 287.105 369.088C291.057 406.669 294.048 444.344 296.107 482.076C296.266 485.034 300.868 485.041 300.702 482.076C300.117 471.369 299.459 460.662 298.722 449.969C296.215 413.534 292.813 377.164 288.543 340.896C296.837 341.44 304.451 342.527 306.409 344.644C308.829 347.254 336.109 375.591 364.284 403.588C364.819 429.323 365.346 455.065 365.881 480.8C365.946 483.773 370.54 483.773 370.475 480.8C369.977 456.617 369.478 432.426 368.973 408.242C394.865 433.847 420.389 457.951 426.977 460.365C432.938 462.554 445.103 463.627 457.197 464.134C457.667 468.709 458.129 473.276 458.599 477.843C458.729 479.09 459.552 480.148 460.896 480.148C462.045 480.148 463.323 479.082 463.193 477.843C462.731 473.326 462.269 468.817 461.814 464.301C476.768 464.772 490.357 464.475 490.357 464.475V448.236C490.357 448.236 460.116 452.963 432.966 443.901C406.135 434.941 330.726 334.915 307.211 328.601C306.517 321.228 306.005 313.849 305.636 306.454C307.009 306.534 308.374 306.614 309.747 306.701C312.709 306.875 312.687 302.264 309.747 302.09C296.873 301.329 284.006 300.561 271.132 299.8C270.605 299.589 270.012 299.56 269.485 299.705C267.448 299.582 265.411 299.466 263.373 299.343C260.411 299.169 260.433 303.779 263.373 303.953C264.97 304.048 266.566 304.142 268.163 304.236C268.474 309.013 268.792 313.791 269.102 318.561C267.708 317.481 266.032 316.719 264.204 316.415C258.699 315.502 253.678 319.315 251.2 324.005C248.354 329.435 248.672 335.676 249.423 341.57ZM301.049 306.201C301.403 313.406 301.908 320.605 302.573 327.789C298.585 327.195 294.612 326.796 290.775 326.542C290.277 319.532 289.778 312.515 289.28 305.505C293.203 305.737 297.126 305.969 301.049 306.201ZM274.224 326.223C273.748 318.988 273.278 311.754 272.801 304.519C276.753 304.751 280.712 304.99 284.664 305.222C285.162 312.247 285.661 319.271 286.159 326.296C281.832 326.136 277.786 326.136 274.224 326.223Z" fill="#81B4DA"/>
<ellipse cx="323.783" cy="502.23" rx="270.489" ry="29.5701" fill="#F0F0F0"/>
<ellipse rx="222.097" ry="29.5701" transform="matrix(0.999684 -0.0251247 0.025082 0.999685 349.762 534.859)" fill="#F0F0F0"/>
<path d="M415.066 311.351C414.585 310.336 419.657 308.928 419.818 307.824C419.978 306.72 413.179 307.343 412.841 306.417C412.218 304.725 420.245 305.277 419.996 304.476C419.746 303.674 411.507 302.694 412.236 301.216C412.966 299.738 420.69 303.122 420.814 302.16C420.939 301.198 413.34 299.648 413.268 297.565C413.215 296.442 425.904 301.839 427.239 301.091C428.574 300.343 425.139 295.427 426.171 294.536C427.203 293.646 431.652 303.923 432.453 304.226C433.254 304.529 450.659 309.783 456.568 310.656C457.066 308.643 461.515 297.618 461.942 295.73C465.413 297.689 469.844 295.338 473.403 297.084C471.606 303.407 467.602 324.211 465.982 325.155C461.088 328.005 435.372 314.397 431.118 311.992C426.865 309.587 424.694 310.727 421.918 310.122C419.141 309.516 415.546 312.366 415.066 311.351Z" fill="#F7A491"/>
<path d="M464.463 223.378C469.998 221.009 476.191 218.605 481.868 220.617C485.445 221.882 488.186 224.732 490.802 227.475C493.667 230.485 496.711 233.923 496.782 238.091C496.818 239.783 496.337 241.439 495.803 243.042C494.771 246.177 493.525 249.277 491.496 251.877C488.204 256.081 483.167 258.574 478.024 260.017C473.468 261.282 472.347 260.836 467.631 260.64C464.445 260.498 459.391 255.439 457.327 253.017C454.034 249.152 454.319 232.427 457.789 228.223C458.697 227.101 460.014 226.014 461.473 225.017C462.417 224.376 463.395 223.788 464.41 223.253C464.428 223.289 464.445 223.325 464.463 223.378Z" fill="#13375B"/>
<path d="M498.51 369.605C497.502 363.236 494.972 346.632 494.972 339.88C494.972 331.45 501.959 280.556 496.193 274.823C490.426 269.09 474.134 270.534 474.134 270.534C474.134 270.534 462.176 276.946 460.619 279.6C459.045 282.255 453.384 307.075 453.119 313.148C452.889 318.477 454.428 359.584 454.799 369.627H498.51V369.605Z" fill="#A1AFE0"/>
<path d="M480.249 253.034C480.249 253.034 480.321 253.408 480.427 254.05C480.997 257.131 483.221 267.319 484.716 270.116C486.532 273.5 478.523 284.312 470.817 282.994C468.521 282.602 472.668 272.627 472.472 271.63C472.081 269.688 471.636 267.497 471.102 264.79C470.799 263.258 470.497 261.709 470.194 260.266C469.376 256.134 468.699 252.749 468.699 252.749L480.249 253.034Z" fill="#F7A491"/>
<path d="M480.447 254.068C480.323 253.427 480.269 253.053 480.269 253.053L468.719 252.768C468.719 252.768 469.395 256.152 470.214 260.284C470.499 261.727 470.801 263.277 471.104 264.791C472.884 264.524 474.752 263.669 476.621 262.048C478.65 260.284 479.985 258.165 480.803 255.903C480.643 255.154 480.536 254.531 480.447 254.068Z" fill="#F47458"/>
<path d="M472.472 226.174C472.472 226.174 477.918 225.55 481.335 229.914C484.752 234.278 488.418 247.797 479.947 255.136C471.476 262.474 463.093 254.174 461.848 245.357C460.602 236.54 460.121 225.853 472.472 226.174Z" fill="#F7A491"/>
<path d="M471.872 224.732C471.872 224.732 479.151 237.575 484.348 238.18C489.544 238.768 490.238 245.608 490.238 245.608C490.238 245.608 488.37 229.88 483.226 226.834C478.083 223.788 471.872 224.732 471.872 224.732Z" fill="#13375B"/>
<path d="M488.392 242.68C488.874 240.41 487.964 238.292 486.359 237.95C484.753 237.609 483.06 239.172 482.578 241.443C482.095 243.714 483.006 245.832 484.611 246.173C486.217 246.515 487.909 244.951 488.392 242.68Z" fill="#F7A491"/>
<path d="M484.737 270.134L488.546 272.076L480.608 279.094L481.925 279.717L468.88 287.109L484.737 270.134Z" fill="white"/>
<path d="M472.474 271.63L467.99 274.034L469.823 275.798L467.509 276.51L468.88 287.108L472.474 271.63Z" fill="white"/>
<path d="M473.97 281.657C473.97 281.657 472.315 282.102 470.322 280.891L468.88 287.107L473.97 281.657Z" fill="#13375B"/>
<path d="M476.033 249.508L467.668 250.434C467.668 250.434 468.22 253.658 471.904 253.355C476.406 252.999 476.033 249.508 476.033 249.508Z" fill="white"/>
<path d="M519.31 289.868C517.548 289.868 516.107 288.425 516.107 286.662C516.107 284.899 517.548 283.456 519.31 283.456C521.072 283.456 522.514 284.899 522.514 286.662C522.514 288.425 521.072 289.868 519.31 289.868ZM519.31 284.275C517.993 284.275 516.926 285.344 516.926 286.662C516.926 287.98 517.993 289.049 519.31 289.049C520.627 289.049 521.695 287.98 521.695 286.662C521.695 285.344 520.627 284.275 519.31 284.275Z" fill="#F7CC7F"/>
<path d="M266.422 519.203C269.026 523.149 271.928 527.319 276.169 528.585C277.88 529.107 279.74 529.107 281.451 529.479C283.237 529.926 284.948 530.894 285.692 532.755C286.064 533.723 286.064 534.915 285.469 535.734C284.725 536.702 283.46 536.851 282.344 536.776C274.234 536.479 266.273 533.202 258.164 534.17C257.643 534.245 257.048 534.319 256.676 533.872C256.378 533.5 256.378 532.904 256.378 532.383C256.601 527.543 257.048 522.777 257.717 518.011" fill="#0D8C8A"/>
<path d="M202.807 519.131C199.98 522.928 196.78 526.875 192.391 527.843C190.605 528.29 188.745 528.141 186.959 528.513C185.174 528.811 183.314 529.779 182.495 531.492C182.049 532.385 181.975 533.577 182.57 534.396C183.239 535.364 184.579 535.587 185.695 535.587C193.953 535.662 202.212 532.832 210.47 534.098C210.991 534.173 211.586 534.247 211.958 533.875C212.33 533.502 212.33 532.981 212.33 532.46C212.33 527.694 212.182 523.003 211.735 518.237" fill="#0D8C8A"/>
<path d="M213.761 520.698H200.592V515.187H213.761V520.698Z" fill="#ADC5FF"/>
<path d="M196.041 383.007C198.869 422.772 202.737 520.544 202.737 520.544L212.112 520.916C212.112 520.916 217.915 465.515 218.957 456.951C220.073 448.388 226.472 395.071 226.472 395.071L257.943 516.895L266.648 516.076C266.648 516.076 254.595 422.101 250.652 379.88C250.206 375.04 243.212 355.381 243.212 355.381L199.315 354.785L196.041 380.178C195.967 381.146 195.967 382.114 196.041 383.007Z" fill="#ADC5FF"/>
<path d="M268.583 519.725L255.488 520.991L255.041 515.555L268.211 514.215L268.583 519.725Z" fill="#ADC5FF"/>
<path d="M226.847 365.583C226.066 365.583 225.433 364.949 225.433 364.168C225.433 363.386 226.066 362.753 226.847 362.753C227.627 362.753 228.261 363.386 228.261 364.168C228.261 364.949 227.627 365.583 226.847 365.583Z" fill="#5B78A4"/>
<path d="M226.847 373.253C226.066 373.253 225.433 372.62 225.433 371.838C225.433 371.057 226.066 370.423 226.847 370.423C227.627 370.423 228.261 371.057 228.261 371.838C228.261 372.62 227.627 373.253 226.847 373.253Z" fill="#5B78A4"/>
<path d="M196.41 382.262C198.791 381.369 200.874 380.028 202.66 378.241C204.446 376.454 205.934 374.443 207.347 372.433C207.645 371.986 206.975 371.614 206.603 371.986C205.19 373.922 203.851 375.858 202.139 377.496C200.428 379.209 198.419 380.549 196.187 381.369C195.666 381.592 195.89 382.411 196.41 382.262Z" fill="#5B78A4"/>
<path d="M250.578 379.73C246.412 378.166 242.989 374.964 241.204 370.943C240.98 370.422 240.236 370.869 240.46 371.39C242.394 375.634 245.965 378.985 250.355 380.549C250.876 380.698 251.099 379.879 250.578 379.73Z" fill="#5B78A4"/>
<path d="M222.824 358.508C223.121 366.104 223.419 373.699 223.791 381.295C223.791 381.816 224.61 381.816 224.61 381.295C224.312 373.699 224.014 366.104 223.642 358.508C223.642 357.987 222.824 357.987 222.824 358.508Z" fill="#5B78A4"/>
<path opacity="0.5" d="M152.997 413.874C151.915 413.874 151.033 412.991 151.033 411.908C151.033 410.825 151.915 409.942 152.997 409.942C154.079 409.942 154.961 410.825 154.961 411.908C154.961 412.991 154.079 413.874 152.997 413.874ZM152.997 410.442C152.181 410.442 151.532 411.092 151.532 411.908C151.532 412.725 152.181 413.375 152.997 413.375C153.813 413.375 154.462 412.725 154.462 411.908C154.462 411.092 153.796 410.442 152.997 410.442Z" fill="#F47458"/>
<path d="M166.152 525.785C165.717 528.57 165.283 531.441 164.761 534.226C164.674 534.748 164.587 535.357 164.674 535.879C164.935 538.055 167.369 539.186 168.326 541.188C168.413 541.362 168.5 541.623 168.5 541.884C168.413 542.58 167.456 542.841 166.761 542.841C164.587 542.928 162.414 543.015 160.327 543.102C159.544 543.102 158.588 543.102 158.066 542.406C157.892 542.058 157.805 541.71 157.719 541.362C157.023 536.053 156.327 530.745 155.632 525.437" fill="#FC9F91"/>
<path d="M116.766 525.785C117.2 528.57 117.722 531.441 118.157 534.226C118.244 534.748 118.331 535.357 118.244 535.879C117.983 538.055 115.462 539.186 114.505 541.188C114.418 541.362 114.331 541.623 114.331 541.884C114.418 542.58 115.375 542.841 116.157 542.841C118.331 542.928 120.504 543.015 122.765 543.102C123.634 543.102 124.591 543.102 125.026 542.406C125.199 542.058 125.286 541.71 125.373 541.362C126.069 536.053 126.764 530.745 127.46 525.437" fill="#FC9F91"/>
<path d="M188.151 551.544C182.761 551.718 178.413 551.893 173.023 552.154C171.371 552.241 169.632 552.241 168.241 551.544C167.458 551.109 166.676 550.413 165.719 550.674C165.024 550.848 164.589 551.457 163.894 551.718C163.372 551.98 162.676 551.98 162.068 551.98C160.155 551.98 158.329 552.067 156.416 552.067C155.808 552.067 155.112 552.067 154.677 551.631C154.156 551.196 154.069 550.326 154.156 549.63C154.33 546.758 154.851 543.887 155.721 541.189C155.895 540.58 156.242 539.884 156.851 539.71C157.46 539.536 157.981 539.884 158.59 540.145C160.677 541.363 163.546 542.146 165.459 540.754C165.98 540.406 166.415 539.884 166.937 539.623C167.545 539.362 168.328 539.449 169.023 539.623C174.936 540.754 180.761 542.581 186.238 545.192C187.456 545.801 188.76 546.497 189.455 547.629C190.151 548.76 190.151 550.587 189.021 551.283" fill="#672C2C"/>
<path d="M177.545 541.62C177.111 541.968 176.763 542.403 176.502 542.838C176.241 543.273 176.067 543.882 176.067 544.405C176.067 544.666 175.893 544.84 175.633 544.84C175.459 544.84 175.198 544.666 175.198 544.405C175.372 543.012 175.98 541.707 177.111 540.837C177.285 540.663 177.632 540.837 177.719 541.011C177.806 541.272 177.719 541.533 177.545 541.62Z" fill="#F09532"/>
<path d="M172.759 539.969C171.716 541.014 170.934 542.319 170.586 543.711C170.412 544.233 169.629 544.059 169.716 543.45C170.151 541.884 171.021 540.492 172.151 539.36C172.586 539.012 173.194 539.621 172.759 539.969Z" fill="#F09532"/>
<path d="M94.7707 551.714C100.161 551.888 104.509 552.062 109.899 552.323C111.551 552.41 113.29 552.41 114.681 551.714C115.464 551.279 116.246 550.583 117.203 550.844C117.898 551.018 118.333 551.627 119.028 551.888C119.55 552.149 120.246 552.149 120.854 552.149C122.767 552.149 124.593 552.236 126.506 552.236C127.114 552.236 127.81 552.236 128.245 551.801C128.766 551.366 128.853 550.496 128.766 549.799C128.592 546.928 128.071 544.056 127.201 541.359C127.027 540.749 126.68 540.053 126.071 539.879C125.462 539.705 124.941 540.053 124.332 540.314C122.245 541.533 119.376 542.316 117.463 540.923C116.942 540.575 116.507 540.053 115.985 539.792C115.377 539.531 114.594 539.618 113.899 539.792C107.986 540.923 102.161 542.751 96.6835 545.361C95.4662 545.971 94.1621 546.667 93.4665 547.798C92.7709 548.929 92.7709 550.757 93.9012 551.453" fill="#672C2C"/>
<path d="M105.814 541.011C106.945 541.881 107.553 543.186 107.727 544.579C107.727 544.84 107.466 545.014 107.292 545.014C107.031 545.014 106.858 544.84 106.858 544.579C106.771 544.144 106.597 543.447 106.423 543.012C106.162 542.49 105.814 542.055 105.38 541.794C105.206 541.62 105.119 541.446 105.206 541.185C105.38 541.011 105.64 540.924 105.814 541.011Z" fill="#F09532"/>
<path d="M110.77 539.532C111.9 540.663 112.77 542.142 113.204 543.622C113.378 544.144 112.509 544.405 112.335 543.883C111.9 542.491 111.205 541.185 110.161 540.141C109.726 539.793 110.335 539.184 110.77 539.532Z" fill="#F09532"/>
<path d="M172.585 354.098C178.41 410.921 175.628 468.006 168.15 524.655C162.673 524.742 159.195 525.178 153.717 525.265C153.196 477.056 152.587 428.586 143.98 381.161C140.589 427.803 136.589 474.445 129.808 520.653C129.634 521.697 129.46 522.828 128.764 523.698C127.808 524.916 126.156 525.178 124.591 525.265C120.157 525.526 119.026 525.7 114.853 524.22C114.592 474.01 113.375 428.238 113.114 378.028C113.114 371.502 113.114 369.152 112.679 355.403" fill="#263238"/>
<g opacity="0.39">
<g opacity="0.39">
<g opacity="0.39">
<path opacity="0.39" d="M143.719 374.896C143.806 368.021 143.632 361.147 143.284 354.185C143.284 353.75 143.893 353.75 143.893 354.185C144.24 361.06 144.414 367.934 144.327 374.896C144.327 375.331 143.719 375.331 143.719 374.896Z" fill="#F09532"/>
</g>
</g>
<g opacity="0.39">
<g opacity="0.39">
<path opacity="0.39" d="M143.807 367.758C142.937 367.236 142.068 366.714 141.285 366.192C140.938 366.018 141.285 365.409 141.633 365.67C142.503 366.192 143.372 366.714 144.155 367.236C144.502 367.41 144.155 367.932 143.807 367.758Z" fill="#F09532"/>
</g>
</g>
<g opacity="0.39">
<g opacity="0.39">
<path opacity="0.39" d="M139.716 364.279C138.934 363.67 138.412 362.974 138.064 362.104C137.977 361.93 138.151 361.756 138.238 361.756C138.412 361.756 138.586 361.843 138.586 361.93V362.017C138.586 362.104 138.586 362.104 138.673 362.191C138.76 362.278 138.76 362.365 138.847 362.452C138.934 362.626 139.021 362.8 139.195 362.974C139.195 362.974 139.195 362.974 139.282 363.061L139.368 363.148C139.455 363.235 139.542 363.322 139.542 363.409C139.629 363.496 139.716 363.583 139.803 363.583L139.89 363.67C139.89 363.67 139.89 363.67 139.977 363.67C140.064 363.757 139.89 363.67 139.977 363.67C140.151 363.757 140.151 363.931 140.064 364.105C140.064 364.279 139.89 364.366 139.716 364.279Z" fill="#F09532"/>
</g>
</g>
<g opacity="0.39">
<g opacity="0.39">
<path opacity="0.39" d="M136.938 359.667C136.591 358.362 136.243 356.97 135.895 355.665C135.808 355.316 136.417 355.142 136.504 355.491C136.851 356.796 137.199 358.188 137.547 359.493C137.634 359.929 137.025 360.016 136.938 359.667Z" fill="#F09532"/>
</g>
</g>
<g opacity="0.39">
<g opacity="0.39">
<path opacity="0.39" d="M119.115 361.06C117.463 366.107 115.724 371.067 114.072 376.114C113.985 376.462 113.376 376.288 113.463 375.94C115.115 370.893 116.854 365.933 118.506 360.886C118.593 360.537 119.202 360.712 119.115 361.06Z" fill="#F09532"/>
</g>
</g>
<g opacity="0.39">
<g opacity="0.39">
<path opacity="0.39" d="M173.545 372.632C170.85 369.151 168.589 365.496 166.676 361.581C166.502 361.232 167.024 360.884 167.198 361.232C169.111 365.061 171.371 368.803 173.98 372.197C174.24 372.458 173.806 372.893 173.545 372.632Z" fill="#F09532"/>
</g>
</g>
<g opacity="0.39">
<g opacity="0.39">
<path opacity="0.39" d="M143.633 370.633C138.329 367.587 134.764 361.931 134.243 355.839C134.243 355.404 134.851 355.404 134.851 355.839C135.373 361.757 138.851 367.239 143.981 370.11C144.242 370.284 143.981 370.807 143.633 370.633Z" fill="#F09532"/>
</g>
</g>
</g>
<path d="M131.109 523.262C130.848 524.393 130.761 524.219 130.5 525.438C130.413 525.786 130.326 526.134 130.065 526.395C129.718 526.743 129.196 526.743 128.761 526.743C124.24 526.83 119.719 527.004 115.198 527.091C114.937 527.091 114.676 527.091 114.415 527.004C114.067 526.83 113.893 526.395 113.807 525.96L113.198 523.697C112.937 522.653 113.72 521.609 114.763 521.609C117.719 521.609 120.154 521.609 123.544 521.435C125.544 521.348 127.718 521.174 129.544 521.174C129.631 521.174 129.804 521.174 129.891 521.174C130.674 521.261 131.196 521.957 131.283 522.653L131.109 523.262Z" fill="#1D6675"/>
<path d="M169.801 522.566C169.974 522.827 170.061 523.088 170.061 523.436C169.887 524.48 169.801 525.176 169.627 526.308C169.54 526.569 169.54 526.83 169.366 527.004C169.192 527.178 168.844 527.178 168.583 527.265C163.714 527.526 158.758 527.7 153.89 527.7C153.629 527.7 153.281 527.7 153.02 527.526C152.759 527.352 152.672 527.004 152.585 526.656C152.325 525.873 152.151 525.002 152.064 524.132C151.89 523.175 152.672 522.392 153.629 522.392C159.193 522.566 163.627 522.392 169.105 522.044C169.279 522.131 169.54 522.305 169.801 522.566Z" fill="#1D6675"/>
<path d="M268.827 272.876C270.161 260.212 262.954 248.528 251.083 245.072C250.443 238.019 246.883 231.214 241.491 226.886C230.831 218.337 212.34 214.97 206.431 227.83C197.551 234.011 191.286 246.07 195.131 256.08C186.944 266.268 192.105 282.673 206.2 289.245C207.036 299.665 213.692 309.426 223.409 312.935C225.741 313.772 229.371 314.912 229.87 315.322C229.229 314.841 238.732 334.416 260.925 322.767C283.58 310.887 285.466 283.688 268.827 272.876Z" fill="#355389"/>
<path d="M303.261 324.675C303.937 323.624 298.545 321.183 298.527 319.919C298.509 318.654 305.948 320.524 306.465 319.563C307.408 317.781 298.438 317.015 298.812 316.16C299.204 315.306 308.476 315.644 307.888 313.863C307.301 312.082 298.243 314.522 298.26 313.417C298.26 312.313 306.909 311.903 307.301 309.588C307.515 308.359 292.672 312.171 291.32 311.102C289.967 310.033 294.487 305.153 293.473 303.977C292.459 302.802 285.998 314.361 285.073 314.557C284.148 314.753 264.002 320.239 257.328 320.186C257.079 317.87 254.267 305.153 254.089 302.98C249.942 304.583 245.724 304.048 241.524 305.384C242.574 312.741 247.718 331.55 249.355 332.868C254.356 336.893 280.357 324.55 285.411 322.591C290.483 320.631 292.726 322.306 295.876 322.092C299.026 321.878 302.567 325.743 303.261 324.675Z" fill="#F48C7F"/>
<path d="M242.291 275.015C253.699 278.88 259.056 306.221 259.056 306.221C259.056 306.221 241.152 311.226 236.578 308.608C236.578 308.608 231.382 285.524 229.513 286.325L242.291 275.015Z" fill="#EAB054"/>
<path d="M201.131 373.327H249.351C249.823 367.228 251.897 321.569 252.061 318.42C252.533 296.311 249.823 278.371 244.774 276.065C240.606 274.18 230.404 270.942 230.055 270.942C224.574 270.898 207.741 273.914 200.166 275.666C198.791 275.976 197.497 283.183 197.497 283.183L199.14 309.262C206.345 345.629 202.28 368.182 201.131 373.327Z" fill="#F7CC7F"/>
<path d="M217.552 260.053C217.552 260.053 219.581 270.562 219.172 274.712C218.763 278.862 220.72 292.221 229.494 292.275C238.268 292.31 231.167 275.282 230.33 271.221C229.512 267.16 229.316 254.567 229.316 254.567L217.552 260.053Z" fill="#F7A491"/>
<path d="M229.494 260.889C229.352 257.451 229.316 254.583 229.316 254.583L217.552 260.069C217.552 260.069 217.962 262.225 218.389 264.968C223.532 265.983 227.252 264.077 229.494 260.889Z" fill="#F47458"/>
<path d="M222.02 229.397C222.02 229.397 216.93 230.359 213.637 235.008C210.345 239.657 207.693 253.622 217.748 260.533C227.786 267.444 236.115 258.466 236.577 249.436C237.022 240.423 235.527 228.293 222.02 229.397Z" fill="#F7A491"/>
<path d="M229.041 245.71C229.041 245.71 230.197 248.372 231.637 250.056C231.637 250.056 230.658 251.325 228.959 250.975L229.041 245.71Z" fill="#A24E3F"/>
<path d="M222.969 244.443C223.005 243.654 222.607 242.995 222.081 242.972C221.556 242.948 221.101 243.569 221.065 244.358C221.03 245.147 221.427 245.806 221.953 245.83C222.479 245.853 222.934 245.233 222.969 244.443Z" fill="#263238"/>
<path d="M221.792 243.03L223.538 242.419C223.648 242.291 222.686 243.799 221.792 243.03Z" fill="#263238"/>
<path d="M233.045 244.692C233.08 243.902 232.683 243.243 232.157 243.22C231.631 243.196 231.177 243.817 231.141 244.606C231.106 245.395 231.503 246.054 232.029 246.078C232.554 246.101 233.009 245.481 233.045 244.692Z" fill="#263238"/>
<path d="M231.96 243.221L233.706 242.61C233.825 242.601 232.862 244.109 231.96 243.221Z" fill="#263238"/>
<path d="M223.411 237.646C223.411 237.646 220.626 237.138 218.961 238.818" stroke="#263238" stroke-width="0.708" stroke-miterlimit="10" stroke-linecap="round" stroke-linejoin="round"/>
<path d="M230.586 237.704C230.586 237.704 232.341 237.213 234.494 238.844" stroke="#263238" stroke-width="0.708" stroke-miterlimit="10" stroke-linecap="round" stroke-linejoin="round"/>
<path d="M227.203 256.249C227.203 256.249 222.954 256.928 221.472 253.095" stroke="#263238" stroke-width="0.708" stroke-miterlimit="10" stroke-linecap="round" stroke-linejoin="round"/>
<path d="M239.026 246.705C239.981 244.557 239.743 242.365 238.495 241.809C237.246 241.253 235.46 242.544 234.505 244.692C233.551 246.841 233.788 249.033 235.037 249.588C236.285 250.144 238.071 248.853 239.026 246.705Z" fill="#F7A491"/>
<path d="M223.553 229.167C223.553 229.167 216.595 243.399 210.882 244.485C205.169 245.572 204.991 252.857 204.991 252.857C204.991 252.857 205.721 236.06 211.167 232.391C216.612 228.722 223.553 229.167 223.553 229.167Z" fill="#355389"/>
<path d="M211.311 252.707C212.911 252.261 213.672 249.972 213.011 247.593C212.349 245.214 210.516 243.647 208.915 244.093C207.315 244.538 206.554 246.828 207.216 249.207C207.877 251.586 209.71 253.153 211.311 252.707Z" fill="#F7A491"/>
<path d="M208.444 274.908C198.709 281.017 196.146 308.697 196.146 308.697C196.146 308.697 214.637 310.585 218.712 307.218C218.712 307.218 217.164 283.529 219.139 284.01L208.444 274.908Z" fill="#F7CC7F"/>
<path d="M165.323 308.912C165.323 308.912 149.555 299.365 144.412 291.973C139.251 284.599 147.224 288.998 154.752 286.291C157.599 285.258 155.375 268.247 161.372 273.324C171.196 281.66 180.148 299.115 180.148 299.115L165.323 308.912Z" fill="#D66350"/>
<path d="M137.343 244.788C137.343 244.788 137.308 245.269 137.219 246.071C136.845 249.954 135.208 262.849 133.66 266.483C131.791 270.883 142.807 283.44 152.15 280.982C154.927 280.252 148.698 268.852 148.84 267.587C149.107 265.147 149.481 261.816 149.855 258.396C150.068 256.473 150.282 254.514 150.477 252.679C151.047 247.46 151.51 243.185 151.51 243.185L137.343 244.788Z" fill="#F7A491"/>
<path d="M175.476 373.338C175.209 354.467 174.675 322.173 174.088 316.724C173.251 308.948 164.083 277.774 161.911 274.567C159.739 271.359 139.962 267.075 139.962 267.075C139.962 267.075 123.139 263.846 115.84 275.446C111.567 282.212 112.297 342.889 112.956 373.338H175.476Z" fill="#85AC8D"/>
<path d="M183.595 410.013C183.595 410.013 184.938 412.382 183.914 415.007C183.275 416.672 183.211 418.401 183.754 419.873C184.202 421.122 185.866 421.314 186.601 420.225L194.31 408.604C194.982 407.612 194.63 406.268 193.574 405.723C192.647 405.243 191.591 404.667 190.791 404.187C189.064 403.162 186.601 403.931 186.601 403.931L183.595 410.013Z" fill="#2C3A64"/>
<path d="M162.165 386.546C164.212 392.949 182.86 413.117 182.86 413.117C182.86 413.117 190.856 407.259 190.664 403.001C190.664 403.001 180.845 384.689 180.717 382.416C180.685 381.872 181.804 379.695 183.5 376.622C183.723 376.206 183.979 375.757 184.235 375.341C187.178 370.091 191.432 362.92 194.759 356.933C194.823 356.805 194.919 356.645 194.983 356.517C197.957 351.139 200.132 346.785 199.813 345.857C198.949 343.136 173.36 339.486 173.36 339.486C173.36 339.486 160.118 380.111 162.165 386.546Z" fill="#35488B"/>
<path d="M184.239 375.343C187.182 370.093 191.436 362.922 194.762 356.935C194.826 356.807 194.922 356.647 194.986 356.519V350.116L186.126 348.772L184.239 375.343Z" fill="#2C3A64"/>
<path d="M216.513 416.287C216.513 416.287 217.92 422.113 216.481 424.514C215.585 426.051 215.233 427.748 215.553 429.284C215.809 430.565 217.44 431.045 218.304 430.085L227.74 419.808C228.54 418.944 228.412 417.567 227.452 416.831C226.62 416.223 225.661 415.486 224.957 414.878C223.422 413.598 220.863 413.982 220.863 413.982L216.513 416.287Z" fill="#2C3A64"/>
<path d="M185.868 343.263C185.868 343.263 195.783 377.837 199.494 386.545C202.053 392.595 214.495 420.575 214.495 420.575C214.495 420.575 226.906 416.798 226.074 412.956C226.074 412.956 218.174 384.272 216.734 381.038C214.879 376.845 216.063 348.193 209.058 343.038C202.053 337.884 185.868 343.263 185.868 343.263Z" fill="#35488B"/>
<path d="M184.843 261.443C184.843 261.443 190.414 258.7 194.809 264.15C199.223 269.619 197.123 269.28 199.276 272.023C201.43 274.766 206.128 273.626 206.626 278.186C207.125 282.746 205.078 283.69 205.078 283.69C205.078 283.69 207.392 287.021 205.683 290.922C203.957 294.805 199.009 298.545 194.507 298.527C194.507 298.527 188.242 302.927 181.373 301.947C174.503 300.967 176.817 300.7 174.094 301.003C171.353 301.306 163.541 298.385 164.146 292.774C164.146 292.774 159.038 287.911 162.936 283.049C166.815 278.186 167.153 273.644 169.04 267.481C170.908 261.318 181.64 260.357 184.843 261.443Z" fill="#184655"/>
<path d="M137.168 246.727C137.239 245.926 137.293 245.445 137.293 245.445L151.477 243.86C151.477 243.86 151.014 248.135 150.444 253.353C150.249 255.188 150.035 257.13 149.822 259.035C147.597 258.911 145.212 258.038 142.738 256.221C140.033 254.244 138.165 251.75 136.937 249.025C137.026 248.099 137.115 247.315 137.168 246.727Z" fill="#F47458"/>
<path d="M179.224 298.42L172.373 301.929L174.188 315.02L181.858 315.484L179.224 298.42Z" fill="#89A6E5"/>
<path d="M184.149 291.846C184.149 291.846 185.093 299.915 184.398 300.752C183.704 301.571 182.761 302.925 184.043 304.759C185.324 306.594 190.076 304.938 192.229 303.637C194.311 302.39 195.539 300.289 195.539 300.289L193.297 287.571L184.149 291.846Z" fill="#F7A491"/>
<path d="M214.847 353.475C215.185 349.361 215.042 344.249 213.423 339.137C210.166 328.895 208.974 322.661 208.654 318.867C204.649 302.925 200.396 298.526 200.396 298.526C196.837 298.49 190.359 298.917 190.359 298.917C190.359 298.917 183.507 298.454 179.236 298.437C176.815 298.419 168.113 340.936 169.608 353.493H214.847V353.475Z" fill="#9BC1F9"/>
<path d="M194.579 294.82L193.298 287.571L184.15 291.846C184.15 291.846 184.221 291.971 184.364 294.072C184.417 294.767 189.347 297.546 194.579 294.82Z" fill="#F47458"/>
<path d="M128.641 312.188L144.498 308.964C144.498 308.964 148.307 322.092 149.054 323.516C149.054 323.516 178.864 323.178 190.627 321.753L194.934 330.303C192.656 330.641 190.734 330.748 189.631 330.962C187.459 331.372 152.969 338.496 152.969 338.496C152.969 338.496 139.07 340.741 137.486 338.71C135.885 336.679 128.641 312.188 128.641 312.188Z" fill="#F7A491"/>
<path d="M130.402 329.144C130.402 329.144 112.712 296.566 111.627 287.055C110.523 277.543 119.226 266.429 127.573 267.854C135.919 269.279 150.014 318.813 150.014 318.813L130.402 329.144Z" fill="#5C7478"/>
<path d="M178.329 281.087C178.329 281.087 177.564 276.367 174.752 277.614C171.94 278.861 174.965 285.772 177.35 285.273C179.753 284.774 178.329 281.087 178.329 281.087Z" fill="#F7A491"/>
<path d="M185.766 264.558C185.766 264.558 190.322 263.953 193.045 267.23C195.768 270.525 199.434 280.375 196.355 287.803C193.276 295.23 188.169 294.055 186.069 293.574C183.969 293.093 179.787 291.971 177.028 285.647C174.27 279.342 174.109 264.469 185.766 264.558Z" fill="#F7A491"/>
<path d="M190.586 278.453C190.586 278.453 192.039 280.824 193.631 282.228C193.631 282.228 192.872 283.564 191.214 283.46L190.586 278.453Z" fill="#A24E3F"/>
<path d="M184.657 278.067C184.585 277.314 184.12 276.742 183.618 276.79C183.116 276.838 182.768 277.488 182.84 278.242C182.912 278.995 183.377 279.567 183.879 279.519C184.381 279.47 184.73 278.82 184.657 278.067Z" fill="#263238"/>
<path d="M183.357 276.883L184.931 276.071C185.018 275.935 184.308 277.493 183.357 276.883Z" fill="#263238"/>
<path d="M194.242 276.949C194.17 276.196 193.704 275.624 193.202 275.672C192.701 275.72 192.352 276.37 192.424 277.124C192.497 277.877 192.962 278.449 193.464 278.401C193.966 278.352 194.314 277.703 194.242 276.949Z" fill="#263238"/>
<path d="M193.013 275.699L194.587 274.886C194.698 274.862 193.988 276.42 193.013 275.699Z" fill="#263238"/>
<path d="M184.163 271.561C184.163 271.561 181.452 271.454 180.098 273.271" stroke="#263238" stroke-width="0.708" stroke-miterlimit="10" stroke-linecap="round" stroke-linejoin="round"/>
<path d="M190.98 270.65C190.98 270.65 192.579 269.949 194.84 271.207" stroke="#263238" stroke-width="0.708" stroke-miterlimit="10" stroke-linecap="round" stroke-linejoin="round"/>
<path d="M139.835 217.037C139.426 216.805 132.556 239.088 137.326 246.337C142.113 253.587 153.112 257.541 158.006 253.266C163.416 248.546 167.278 224.001 159.305 216.039C151.332 208.077 139.835 217.037 139.835 217.037Z" fill="#F7A491"/>
<path d="M157.901 203.268C150.658 203.535 145.408 207.062 143.45 208.594C140.211 208.434 135.602 209.485 129.907 216.128C122.913 224.304 125.28 235.045 130.833 241.065C136.403 247.068 136.51 252.09 136.51 252.09C136.51 252.09 138.663 245.554 138.806 243.149C138.894 241.724 138.841 240.139 138.467 238.803C137.489 235.24 142.685 233.869 144.5 231.34C145.889 229.398 146.761 224.571 148.985 221.347L151.388 219.014C151.388 219.014 156.513 216.235 160.784 217.981C165.038 219.709 167.173 202.93 157.901 203.268Z" fill="#0E2E35"/>
<path d="M143.524 235.346C143.114 238.142 141.459 240.209 139.858 239.959C138.256 239.71 137.277 237.27 137.704 234.473C138.114 231.677 139.769 229.611 141.37 229.86C142.972 230.109 143.933 232.567 143.524 235.346Z" fill="#F7A491"/>
<path d="M161.38 231.794C161.38 231.794 162.535 234.456 163.976 236.141C163.976 236.141 162.996 237.41 161.298 237.06L161.38 231.794Z" fill="#A24E3F"/>
<path d="M155.311 230.528C155.346 229.738 154.949 229.08 154.423 229.056C153.898 229.032 153.443 229.653 153.407 230.442C153.372 231.231 153.769 231.89 154.295 231.914C154.821 231.937 155.276 231.317 155.311 230.528Z" fill="#263238"/>
<path d="M154.134 229.114L155.88 228.503C155.99 228.375 155.028 229.883 154.134 229.114Z" fill="#263238"/>
<path d="M165.379 230.774C165.414 229.985 165.017 229.326 164.491 229.303C163.966 229.279 163.511 229.9 163.476 230.689C163.44 231.478 163.838 232.137 164.363 232.16C164.889 232.184 165.344 231.563 165.379 230.774Z" fill="#263238"/>
<path d="M164.29 229.303L166.036 228.692C166.155 228.683 165.193 230.191 164.29 229.303Z" fill="#263238"/>
<path d="M155.754 223.731C155.754 223.731 152.969 223.224 151.304 224.903" stroke="#263238" stroke-width="0.708" stroke-miterlimit="10" stroke-linecap="round" stroke-linejoin="round"/>
<path d="M162.929 223.789C162.929 223.789 164.684 223.298 166.837 224.929" stroke="#263238" stroke-width="0.708" stroke-miterlimit="10" stroke-linecap="round" stroke-linejoin="round"/>
<path d="M159.537 242.334C159.537 242.334 155.289 243.012 153.806 239.179" stroke="#263238" stroke-width="0.708" stroke-miterlimit="10" stroke-linecap="round" stroke-linejoin="round"/>
<path d="M173.656 334.025L170.006 338.989L181.288 347.297L184.938 342.333L173.656 334.025Z" fill="#466EB6"/>
<path d="M172.193 332.117L171.73 332.277L171.766 332.545L171.463 332.652L171.481 332.919L171.179 333.026L171.214 333.293L170.912 333.4L170.929 333.667L170.627 333.774L170.662 334.059L170.342 334.166L170.378 334.433L170.075 334.54L170.093 334.807L169.79 334.914L169.826 335.181L169.523 335.288L169.541 335.555L169.239 335.662L169.274 335.929L168.972 336.036L168.99 336.303L168.687 336.428L168.723 336.695L168.42 336.802L168.438 337.069L168.135 337.176L168.153 337.443L167.851 337.55L167.886 337.817L167.584 337.924L167.619 338.369V338.387H167.673L169.132 338.351L169.986 338.993L173.634 334.023L172.78 333.382L172.211 332.117L172.193 332.135V332.117Z" fill="#13375B"/>
<path d="M187.126 343.106L185.703 342.91L184.92 342.322L181.254 347.292L182.054 347.88L182.517 349.305V349.358H182.535L182.553 349.34L182.98 349.269L182.998 348.948L183.265 348.895V348.557L183.531 348.521L183.549 348.182L183.816 348.129V347.808L184.101 347.755V347.434L184.368 347.381V347.06L184.653 347.007V346.686L184.92 346.633L184.937 346.294L185.204 346.259V345.92L185.471 345.885L185.489 345.546L185.756 345.493V345.172L186.041 345.119V344.798L186.308 344.745V344.424L186.593 344.371V344.05L186.859 343.997L186.877 343.658L187.144 343.623V343.124H187.109L187.126 343.106Z" fill="#13375B"/>
<path d="M174.094 336.004L171.984 338.873L180.742 345.323L182.852 342.454L174.094 336.004Z" fill="#50BFA5"/>
<path d="M169.988 338.991L171.999 338.849L174.117 335.981L173.637 334.022L169.988 338.991Z" fill="#355389"/>
<path d="M181.253 347.292L180.755 345.297L182.872 342.429L184.919 342.322L181.253 347.292Z" fill="#355389"/>
<path d="M186.217 285.79L193.246 284.632C193.246 284.632 193.531 287.322 190.452 287.927C186.697 288.657 186.217 285.79 186.217 285.79Z" fill="white"/>
<path d="M212.409 320.879C210.879 321.752 207.871 323.427 207.747 323.07C207.622 322.75 209.722 321.628 212.036 319.864C211.787 319.17 211.52 318.439 211.253 317.709C210.665 318.083 210.043 318.368 209.526 318.706C207.978 319.704 206.875 320.452 206.857 320.345C206.839 320.238 206.394 320.203 207.142 319.526C207.889 318.831 209.633 317.816 210.879 316.729C210.612 315.981 210.327 315.233 210.06 314.503C209.918 314.645 209.829 314.734 209.829 314.734C209.829 314.734 205.931 317.175 205.558 316.605C205.415 316.373 207.498 314.663 209.348 312.597C209.028 311.724 208.726 310.887 208.441 310.139C208.12 310.442 207.818 310.727 207.64 310.887C207.035 311.404 205.077 312.828 205.077 312.828C205.077 312.828 198.065 317.442 197.763 316.872C197.46 316.302 197.264 314.538 197.585 314.093C197.923 313.648 198.955 313.185 199.293 312.739C199.631 312.294 199.685 311.404 199.169 310.923C198.653 310.442 196.232 311.92 196.232 311.92C196.232 311.92 194.275 313.149 193.527 314.592C190.947 319.615 190.947 321.129 190.591 321.77L194.72 330.338C196.303 330.017 199.596 329.34 201.892 328.806C204.988 328.075 207.569 325.956 208.423 325.617C208.53 325.582 210.594 324.584 213.032 322.643C212.854 322.091 212.641 321.503 212.409 320.879Z" fill="#F8A492"/>
<path d="M201.789 315.98C201.789 315.98 204.477 324.084 204.619 325.064C204.619 325.064 190.132 334.362 183.565 337.817C183.476 337.853 183.387 337.889 183.316 337.906C183.174 337.96 183.014 338.067 182.854 337.96C182.142 337.461 179.543 335.983 178.404 335.395C178.084 335.235 177.746 335.146 177.39 335.128C176.607 335.092 175.148 335.021 175.148 335.021L176.251 336.125C176.589 336.464 176.607 337.034 176.269 337.39C175.931 337.746 175.486 337.978 175.041 338.227C174.454 338.53 173.92 339.046 173.493 339.563C173.083 340.08 173.137 340.721 173.599 341.255C173.884 341.576 174.276 341.861 174.436 342.253C174.703 342.912 178.689 347.436 179.828 347.133C180.398 346.973 182.711 345.37 183.512 344.604C184.082 344.052 184.776 343.624 185.452 343.393C185.594 343.339 185.754 343.268 185.897 343.197C190.915 341.059 207.911 334.148 207.911 334.148C207.911 334.148 215.849 330.354 215.955 328.751C216.062 327.148 211.097 311.99 211.097 311.99L201.789 315.98Z" fill="#F48C7F"/>
<path d="M215.933 319.846C215.933 319.846 203.048 324.531 199.72 324.299C199.72 324.299 195.396 308.09 195.164 307.075C194.096 302.48 196.303 299.772 198.243 298.686C207.177 293.663 215.933 319.846 215.933 319.846Z" fill="#89A6E5"/>
<path d="M92.2484 254.549C90.5399 254.549 89.134 253.159 89.134 251.432C89.134 249.704 90.5221 248.315 92.2484 248.315C93.9569 248.315 95.3628 249.704 95.3628 251.432C95.3628 253.159 93.9569 254.549 92.2484 254.549ZM92.2484 249.116C90.967 249.116 89.9348 250.167 89.9348 251.432C89.9348 252.696 90.9848 253.747 92.2484 253.747C93.5298 253.747 94.562 252.696 94.562 251.432C94.562 250.167 93.5298 249.116 92.2484 249.116Z" fill="#81B4DA"/>
<path d="M591.279 449.506C588.699 449.506 586.599 447.404 586.599 444.821C586.599 442.238 588.699 440.137 591.279 440.137C593.86 440.137 595.96 442.238 595.96 444.821C595.96 447.404 593.86 449.506 591.279 449.506ZM591.279 441.33C589.357 441.33 587.791 442.897 587.791 444.821C587.791 446.745 589.357 448.312 591.279 448.312C593.201 448.312 594.767 446.745 594.767 444.821C594.785 442.897 593.219 441.33 591.279 441.33Z" fill="#F47458"/>
<path d="M507.478 511.785C507.617 509.421 507.756 507.126 507.895 504.762C507.964 503.858 507.964 502.884 507.339 502.05C506.296 500.659 503.934 500.589 501.919 500.659C501.224 500.659 500.46 500.728 499.904 501.145C499.279 501.632 499.348 502.467 499.418 503.232C499.904 506.5 500.321 509.699 500.807 512.968" fill="#F4966B"/>
<path d="M447.095 510.812C447.165 508.448 447.165 506.153 447.234 503.789C447.234 502.885 447.304 501.911 448.068 501.146C449.388 499.825 452.029 499.894 454.252 500.103C455.016 500.172 455.92 500.311 456.406 500.729C457.031 501.285 456.962 502.12 456.753 502.815C455.989 506.014 455.225 509.213 454.461 512.412" fill="#F4966B"/>
<path d="M430.559 519.99C434.867 520.129 438.341 520.269 442.649 520.477C443.969 520.547 454.392 520.408 455.851 520.408C456.337 520.408 456.893 520.408 457.241 520.06C457.657 519.712 457.727 519.017 457.657 518.46C457.518 516.166 457.102 513.871 456.407 511.715C456.268 511.228 455.99 510.672 455.503 510.533C455.017 510.394 454.6 510.672 454.114 510.88C452.446 511.854 452.307 511.854 450.292 511.367C449.806 511.228 447.86 510.602 447.374 510.463C446.888 510.254 446.262 510.324 445.706 510.463C440.981 511.367 436.326 512.828 431.949 514.914C430.976 515.401 429.934 515.957 429.378 516.861C428.822 517.765 428.822 519.225 429.725 519.782" fill="#CE4238"/>
<path d="M483.438 519.99C487.746 520.129 491.22 520.269 495.528 520.477C496.848 520.547 507.271 520.408 508.73 520.408C509.216 520.408 509.772 520.408 510.119 520.06C510.536 519.712 510.606 519.017 510.536 518.46C510.397 516.166 509.981 513.871 509.286 511.715C509.147 511.228 508.869 510.672 508.382 510.533C507.896 510.394 507.479 510.672 506.993 510.88C505.325 511.854 505.186 511.854 503.171 511.367C502.685 511.228 500.739 510.602 500.253 510.463C499.767 510.254 499.141 510.324 498.585 510.463C493.86 511.367 489.205 512.828 484.828 514.914C483.855 515.401 482.813 515.957 482.257 516.861C481.701 517.765 481.701 519.225 482.604 519.782" fill="#CE4238"/>
<path d="M449.462 374.373C449.74 411.578 447.378 502.956 447.378 502.956L456.202 503.443C456.202 503.443 464.888 452.677 466.416 444.749C467.945 436.821 477.186 387.586 477.186 387.586L499.212 502.886L507.342 502.678C507.342 502.678 501.783 414.359 500.602 374.79C500.463 370.27 495.182 351.493 495.182 351.493L454.326 348.294L449.74 371.799C449.532 372.634 449.462 373.468 449.462 374.373Z" fill="#564646"/>
<path d="M508.87 506.155L496.572 506.572L496.502 501.426L508.801 501.009L508.87 506.155Z" fill="#87524E"/>
<path d="M445.705 497.861L445.372 502.996L457.645 503.792L457.978 498.657L445.705 497.861Z" fill="#87524E"/>
<path d="M449.885 373.676C452.109 372.981 454.124 371.868 455.931 370.338C457.668 368.808 459.196 367 460.655 365.192C461.003 364.775 460.308 364.358 460.03 364.775C458.64 366.513 457.181 368.182 455.514 369.643C453.846 371.103 451.901 372.285 449.677 372.911C449.26 373.05 449.399 373.815 449.885 373.676Z" fill="#86514D"/>
<path d="M500.537 374.58C496.785 372.911 493.797 369.642 492.338 365.817C492.13 365.33 491.435 365.678 491.643 366.165C493.172 370.268 496.299 373.536 500.259 375.344C500.746 375.553 500.954 374.788 500.537 374.58Z" fill="#86514D"/>
<path d="M476.006 353.091C475.867 360.185 475.659 367.278 475.52 374.441C475.52 374.928 476.284 374.997 476.284 374.51C476.423 367.417 476.631 360.324 476.77 353.161C476.77 352.674 476.006 352.605 476.006 353.091Z" fill="#86514D"/>
<path d="M483.328 298.063L450.226 302.908C449.23 303.05 448.536 303.976 448.696 304.974L455.156 349.165C455.298 350.162 456.224 350.857 457.221 350.697L490.322 345.852C491.319 345.709 492.013 344.783 491.853 343.786L485.393 299.595C485.25 298.597 484.325 297.92 483.328 298.063Z" fill="#184655"/>
<path d="M458.803 299.842C458.678 299.913 458.607 300.055 458.625 300.216L458.838 301.658L473.378 299.539C473.52 300.536 472.844 301.462 471.848 301.605L460.92 303.208C459.924 303.351 458.998 302.674 458.856 301.676L458.642 300.233C458.607 300.055 458.696 299.913 458.803 299.842Z" fill="#355389"/>
<path d="M507.086 313.504L495.091 314.733C495.091 314.733 495.287 324.921 495.074 326.097C495.074 326.097 474.572 331.779 465.994 333.329C465.994 333.329 462.096 331.12 460.512 330.407C458.929 329.695 454.693 328.929 453.75 328.804C452.806 328.68 453.127 329.713 453.945 330.069C454.764 330.425 456.829 331.405 457.434 332.616C457.434 332.616 455.743 332.794 454.853 332.402C453.963 332.011 452.718 331.156 452.7 330.71C452.682 330.265 452.468 329.214 452.184 329.267C452.112 329.285 452.006 329.624 451.917 329.998C451.828 330.336 451.721 330.692 451.632 331.049C451.49 331.672 451.312 332.581 451.24 332.99C451.08 333.934 451.65 336.499 451.739 337.425C451.881 339.1 452.362 339.848 453.251 340.275C454.675 340.774 456.188 341.095 458.412 341.326C462.488 341.754 466.243 340.578 467.88 340.382C469.518 340.204 495.625 337.603 495.625 337.603C495.625 337.603 506.001 336.107 506.695 334.326C507.353 332.545 507.086 313.504 507.086 313.504Z" fill="#F7A491"/>
<path d="M496.662 273.197C496.662 273.197 500.453 274.996 503.781 282.744C506.948 290.118 507.874 326.9 507.874 326.9L495.327 324.816L488.956 307.663C484.418 297.403 485.592 285.434 492.213 276.368C493.975 273.945 495.594 272.485 496.662 273.197Z" fill="#97A5D7"/>
<path d="M467.773 243.016C467.773 243.016 467.101 245.735 466.001 247.57C466.001 247.57 467.137 248.62 468.697 248.014L467.773 243.016Z" fill="#A24E3F"/>
<path d="M473.347 240.834C473.187 240.089 473.459 239.398 473.956 239.291C474.452 239.184 474.985 239.701 475.145 240.447C475.306 241.192 475.033 241.883 474.537 241.99C474.04 242.097 473.508 241.58 473.347 240.834Z" fill="#263238"/>
<path d="M474.242 239.299L472.483 239.001C472.358 238.897 473.514 240.175 474.242 239.299Z" fill="#263238"/>
<path d="M463.802 242.693C463.641 241.947 463.913 241.257 464.41 241.15C464.906 241.043 465.439 241.56 465.599 242.305C465.76 243.05 465.488 243.741 464.991 243.848C464.495 243.955 463.962 243.438 463.802 242.693Z" fill="#263238"/>
<path d="M464.598 241.119L462.84 240.821C462.725 240.831 463.881 242.11 464.598 241.119Z" fill="#263238"/>
<path d="M471.837 234.437C471.837 234.437 474.406 233.506 476.26 234.836" stroke="#263238" stroke-width="0.708" stroke-miterlimit="10" stroke-linecap="round" stroke-linejoin="round"/>
<path d="M465.019 235.645C465.019 235.645 463.271 235.46 461.484 237.358" stroke="#263238" stroke-width="0.708" stroke-miterlimit="10" stroke-linecap="round" stroke-linejoin="round"/>
<ellipse cx="469.998" cy="321.7" rx="3.03425" ry="3.03684" fill="#355389"/>
</svg>
