<svg width="1440" height="873" viewBox="0 0 1440 873" fill="none" xmlns="http://www.w3.org/2000/svg">
<path d="M1440 0.536621L1279.65 16.7339C1254.58 19.2654 1229.37 19.8994 1204.21 18.6304L898.195 3.19462C863.162 1.42753 828.041 3.35185 793.411 8.9358L547.094 48.6536C500.269 56.2039 452.609 57.0534 405.545 51.1766L0 0.536621V204.537H1440V0.536621Z" fill="#FCEBC7"/>
<path d="M1440 150.037L1268.5 135.305C1231.62 132.136 1194.49 133.074 1157.81 138.102L731.5 196.537H204L0 170.537V483.537H1440V150.037Z" fill="#FBE1A8"/>
<path d="M0 373.037L124.47 352.103C187.57 341.491 252.121 343.089 314.618 356.81L732.369 448.529C792.603 461.753 854.764 463.721 915.714 454.332L1165.86 415.799C1201.52 410.307 1237.66 408.69 1273.66 410.976L1440 421.537V706.537H0V373.037Z" fill="#EFD598"/>
<path d="M0 657.537L219.109 605.026C305.16 584.403 395.142 586.986 479.869 612.511L665.369 668.397C768.061 699.335 877.98 696.432 978.896 660.117L1167.75 592.159C1202.15 579.781 1237.8 571.213 1274.06 566.608L1440 545.537V872.537H0V657.537Z" fill="#E7CC89"/>
<g clip-path="url(#clip0)">
<path d="M1258.69 674.83C1255.35 669.978 1249.63 667.234 1243.75 667.667C1242.21 667.781 1241.05 669.133 1241.17 670.68L1241.88 679.733L1233.69 675.825C1232.28 675.158 1230.61 675.757 1229.95 677.161C1227.44 682.494 1227.95 688.82 1231.29 693.671C1235.02 699.093 1241.33 701.572 1247.35 700.712C1246.77 708.502 1242.64 713.702 1234.8 715.12C1234.2 707.664 1229.59 701.032 1222.79 697.876L1223.45 694.325C1223.73 692.804 1222.73 691.343 1221.21 691.062C1219.68 690.781 1218.22 691.785 1217.94 693.306L1217.4 696.212L1205.18 693.95L1205.72 691.044C1206 689.523 1205 688.062 1203.48 687.781C1201.96 687.499 1200.5 688.504 1200.22 690.024L1199.56 693.572C1192.08 694.083 1185.4 698.625 1182.16 705.372C1175.34 701.23 1173.38 694.933 1175.62 687.438C1187.26 693.906 1201.26 684.766 1200.29 671.672C1200.18 670.125 1198.83 668.965 1197.28 669.087L1188.23 669.802L1192.13 661.604C1192.8 660.203 1192.2 658.525 1190.8 657.865C1185.46 655.357 1179.14 655.871 1174.29 659.207C1166.26 664.729 1164.63 676.059 1171.01 683.637C1169.83 686.617 1168.08 692.698 1170.02 698.957C1171.57 703.924 1175.06 707.916 1180.41 710.83C1179.79 714.203 1179.13 716.788 1179.73 720.764L1169.38 724.014C1165.93 725.097 1163.38 727.979 1162.72 731.534L1161.64 737.34C1161.36 738.861 1162.37 740.322 1163.89 740.603C1165.41 740.884 1166.87 739.88 1167.15 738.359L1168.23 732.553C1168.51 731.042 1169.59 729.817 1171.06 729.357L1181.3 726.14C1182.53 728.887 1184.33 731.35 1186.6 733.345L1181.05 735.087C1177.6 736.17 1175.05 739.052 1174.39 742.607L1173.31 748.413C1173.03 749.933 1174.04 751.394 1175.56 751.676C1177.08 751.957 1178.54 750.953 1178.82 749.432L1179.89 743.626C1180.17 742.115 1181.26 740.89 1182.73 740.43L1193 737.203C1195.26 738.054 1195.41 737.98 1209.6 740.606C1210.83 740.835 1212.07 740.95 1213.28 740.956L1221.73 747.649C1222.93 748.603 1223.5 750.135 1223.22 751.646L1222.15 757.452C1221.87 758.973 1222.87 760.434 1224.39 760.715C1225.91 760.997 1227.38 759.992 1227.66 758.472L1228.73 752.666C1229.39 749.11 1228.04 745.506 1225.2 743.26L1220.65 739.648C1223.47 738.595 1226.04 736.941 1228.17 734.814L1236.58 741.486C1237.79 742.441 1238.36 743.973 1238.08 745.484L1237.01 751.29C1236.73 752.81 1237.73 754.271 1239.25 754.553C1240.77 754.834 1242.23 753.83 1242.52 752.309L1243.59 746.503C1244.25 742.948 1242.9 739.344 1240.06 737.098L1231.56 730.358C1233.53 726.879 1233.85 724.243 1234.48 720.841C1246.78 719.206 1253.1 710.333 1253.01 698.816C1261.66 694.031 1264.22 682.875 1258.69 674.83ZM1185.71 662.066L1181.08 671.769C1180.16 673.714 1181.69 675.935 1183.83 675.765L1194.55 674.92C1192.74 684.531 1180.19 687.247 1174.62 679.155C1169.09 671.104 1176.05 660.304 1185.71 662.066ZM1210.62 735.1L1197.59 732.689C1189.31 731.156 1183.82 723.174 1185.36 714.896L1185.96 711.616C1187.5 703.337 1195.48 697.849 1203.76 699.381L1216.78 701.792C1225.06 703.324 1230.55 711.306 1229.02 719.585L1228.41 722.865C1226.88 731.144 1218.89 736.632 1210.62 735.1ZM1251.24 693.336C1243.14 698.901 1232.39 691.869 1234.15 682.25L1243.85 686.875C1245.79 687.801 1248.02 686.273 1247.85 684.127L1247 673.412C1256.64 675.222 1259.29 687.797 1251.24 693.336Z" fill="#EFD598"/>
</g>
<g clip-path="url(#clip1)">
<path d="M1380.25 289.453C1379.34 283.636 1375.37 278.685 1369.88 276.534C1368.44 275.967 1366.81 276.684 1366.25 278.132L1362.97 286.603L1357.27 279.534C1356.3 278.326 1354.53 278.141 1353.33 279.121C1348.76 282.844 1346.48 288.771 1347.39 294.587C1348.41 301.089 1353.03 306.053 1358.83 307.885C1354.94 314.657 1348.96 317.558 1341.28 315.446C1343.96 308.461 1342.68 300.488 1337.91 294.702L1340.04 291.785C1340.95 290.536 1340.68 288.784 1339.43 287.873C1338.18 286.961 1336.43 287.235 1335.52 288.484L1333.78 290.872L1323.74 283.547L1325.48 281.159C1326.39 279.91 1326.12 278.158 1324.87 277.247C1323.62 276.335 1321.87 276.609 1320.96 277.858L1318.83 280.773C1311.87 277.998 1303.87 279.202 1298.04 283.885C1293.68 277.199 1294.64 270.677 1299.9 264.887C1307.6 275.754 1324.17 273.567 1328.96 261.345C1329.53 259.9 1328.81 258.27 1327.36 257.71L1318.89 254.439L1325.96 248.738C1327.17 247.764 1327.36 245.992 1326.38 244.789C1322.65 240.221 1316.73 237.948 1310.91 238.857C1301.28 240.362 1294.91 249.872 1297.38 259.464C1295.04 261.644 1290.82 266.367 1289.87 272.851C1289.11 277.998 1290.54 283.109 1294.1 288.05C1292.08 290.822 1290.37 292.868 1289.19 296.712L1278.45 295.164C1274.87 294.649 1271.32 296.143 1269.19 299.064L1265.71 303.833C1264.8 305.082 1265.08 306.834 1266.32 307.746C1267.57 308.657 1269.32 308.383 1270.24 307.134L1273.72 302.364C1274.62 301.123 1276.13 300.488 1277.65 300.707L1288.28 302.239C1288.2 305.245 1288.76 308.248 1289.94 311.024L1284.18 310.195C1280.6 309.679 1277.06 311.174 1274.92 314.094L1271.44 318.864C1270.53 320.113 1270.81 321.865 1272.06 322.776C1273.3 323.688 1275.06 323.414 1275.97 322.165L1279.45 317.395C1280.35 316.154 1281.86 315.519 1283.38 315.738L1294.04 317.274C1295.71 319.019 1295.88 319.015 1307.53 327.52C1308.55 328.262 1309.61 328.899 1310.71 329.431L1315.42 339.117C1316.1 340.499 1315.95 342.128 1315.04 343.37L1311.56 348.139C1310.65 349.388 1310.93 351.14 1312.18 352.052C1313.42 352.963 1315.18 352.689 1316.09 351.44L1319.57 346.67C1321.7 343.75 1322.04 339.916 1320.46 336.665L1317.91 331.437C1320.91 331.709 1323.95 331.33 1326.78 330.332L1331.49 339.988C1332.16 341.37 1332.01 343 1331.11 344.241L1327.63 349.011C1326.72 350.26 1326.99 352.012 1328.24 352.923C1329.49 353.835 1331.24 353.561 1332.15 352.312L1335.63 347.542C1337.76 344.621 1338.1 340.787 1336.52 337.537L1331.77 327.782C1335.05 325.498 1336.48 323.258 1338.52 320.463C1350.31 324.311 1359.86 319.047 1364.75 308.622C1374.62 308.051 1381.76 299.099 1380.25 289.453ZM1319.97 246.376L1311.6 253.123C1309.93 254.475 1310.34 257.14 1312.35 257.915L1322.38 261.787C1316.59 269.672 1304.1 266.69 1302.58 256.987C1301.07 247.333 1312.03 240.609 1319.97 246.376ZM1310.83 322.997L1300.13 315.189C1293.33 310.226 1291.84 300.656 1296.8 293.854L1298.77 291.16C1303.73 284.359 1313.3 282.863 1320.1 287.826L1330.8 295.633C1337.6 300.596 1339.1 310.167 1334.13 316.968L1332.17 319.662C1327.21 326.464 1317.64 327.96 1310.83 322.997ZM1365.52 302.914C1355.82 304.431 1349.17 293.44 1354.91 285.527L1361.66 293.894C1363.01 295.57 1365.68 295.153 1366.45 293.145L1370.32 283.118C1378.23 288.921 1375.18 301.405 1365.52 302.914Z" fill="#EFD598"/>
</g>
<g clip-path="url(#clip2)">
<path d="M299.706 138.487C294.937 135.034 288.625 134.366 283.234 136.743C281.814 137.369 281.173 139.031 281.807 140.448L285.513 148.739L276.48 147.803C274.937 147.644 273.557 148.77 273.405 150.314C272.829 156.179 275.433 161.967 280.202 165.42C285.531 169.28 292.307 169.501 297.697 166.672C299.761 174.205 297.609 180.49 290.7 184.452C287.63 177.629 281.064 172.926 273.604 172.229L273.034 168.663C272.789 167.136 271.353 166.096 269.827 166.34C268.3 166.585 267.26 168.021 267.504 169.548L267.971 172.466L255.699 174.43L255.232 171.511C254.988 169.984 253.552 168.944 252.025 169.188C250.498 169.432 249.458 170.868 249.703 172.395L250.273 175.958C243.397 178.945 238.622 185.463 237.832 192.905C230.015 191.289 226.066 186.01 225.661 178.199C238.799 180.392 248.921 167.092 243.626 155.078C243 153.659 241.337 153.019 239.921 153.652L231.63 157.358L232.565 148.325C232.725 146.782 231.598 145.402 230.054 145.25C224.189 144.674 218.401 147.278 214.948 152.046C209.231 159.94 211.492 171.161 220.04 176.164C219.936 179.364 220.319 185.682 224.248 190.927C227.368 195.09 231.998 197.68 238.016 198.632C238.558 202.02 238.805 204.675 240.701 208.221L232.036 214.752C229.149 216.928 227.71 220.498 228.281 224.069L229.214 229.899C229.458 231.426 230.894 232.466 232.421 232.222C233.948 231.977 234.988 230.541 234.744 229.015L233.811 223.184C233.568 221.667 234.18 220.149 235.407 219.224L243.984 212.759C246.058 214.937 248.586 216.653 251.385 217.775L246.741 221.275C243.853 223.452 242.415 227.022 242.986 230.592L243.918 236.422C244.163 237.949 245.599 238.989 247.125 238.745C248.652 238.501 249.692 237.065 249.448 235.538L248.515 229.707C248.273 228.19 248.884 226.672 250.111 225.747L258.714 219.263C261.128 219.308 261.24 219.19 275.488 216.91C276.731 216.712 277.931 216.406 279.08 216.005L289.276 219.482C290.731 219.978 291.785 221.229 292.028 222.747L292.961 228.577C293.205 230.104 294.641 231.144 296.168 230.9C297.695 230.655 298.734 229.219 298.49 227.692L297.558 221.862C296.986 218.292 294.506 215.349 291.084 214.182L285.579 212.305C287.889 210.366 289.755 207.948 291.046 205.231L301.212 208.698C302.666 209.193 303.721 210.444 303.963 211.962L304.896 217.792C305.14 219.319 306.576 220.359 308.103 220.115C309.63 219.871 310.67 218.435 310.426 216.908L309.493 211.077C308.922 207.507 306.441 204.564 303.019 203.397L292.75 199.895C293.441 195.957 292.856 193.368 292.31 189.951C303.353 184.289 306.339 173.81 302.391 162.991C308.94 155.583 307.614 144.214 299.706 138.487ZM226.667 150.914L225.56 161.605C225.338 163.748 227.524 165.328 229.488 164.45L239.3 160.063C240.82 169.723 229.9 176.489 221.946 170.729C214.033 164.998 216.977 152.489 226.667 150.914ZM274.604 211.381L261.524 213.473C253.211 214.803 245.365 209.121 244.035 200.808L243.508 197.514C242.178 189.2 247.86 181.355 256.174 180.025L269.253 177.932C277.567 176.603 285.413 182.284 286.742 190.598L287.269 193.892C288.599 202.205 282.918 210.051 274.604 211.381ZM298.884 158.421C293.124 166.376 280.639 163.352 279.069 153.701L289.761 154.808C291.902 155.03 293.484 152.845 292.605 150.88L288.218 141.067C297.908 139.543 304.619 150.503 298.884 158.421Z" fill="#EFD598"/>
</g>
<g clip-path="url(#clip3)">
<path d="M108.584 448.805C103.22 446.378 96.9024 446.989 92.0967 450.399C90.8314 451.297 90.5373 453.054 91.4417 454.315L96.7353 461.694L87.6981 462.589C86.154 462.742 85.0281 464.123 85.1891 465.666C85.8006 471.527 89.5124 476.675 94.8762 479.102C100.871 481.815 107.554 480.673 112.267 476.82C115.8 483.787 114.952 490.375 108.977 495.642C104.602 489.574 97.2263 486.282 89.7778 487.095L88.5041 483.716C87.9586 482.269 86.3433 481.538 84.8964 482.084C83.4495 482.629 82.7186 484.245 83.2641 485.692L84.3068 488.458L72.678 492.841L71.6353 490.075C71.0898 488.628 69.4745 487.897 68.0276 488.443C66.5807 488.988 65.8498 490.604 66.3953 492.051L67.6681 495.427C61.5311 499.732 58.1598 507.075 58.8782 514.524C50.8961 514.508 45.9683 510.128 44.0059 502.557C57.3164 502.071 64.5665 487.012 56.9694 476.304C56.0717 475.039 54.3147 474.745 53.0537 475.649L45.6747 480.943L44.7797 471.905C44.6269 470.362 43.246 469.235 41.7029 469.396C35.8415 470.008 30.6928 473.719 28.2659 479.083C24.2483 487.963 28.7132 498.503 38.091 501.69C38.6302 504.847 40.2722 510.959 45.1736 515.31C49.0643 518.763 54.1195 520.372 60.2066 520.098C61.4168 523.308 62.191 525.861 64.7596 528.954L57.5806 537.09C55.1881 539.801 54.4942 543.587 55.7697 546.97L57.8525 552.495C58.3979 553.942 60.0132 554.673 61.4601 554.127C62.907 553.582 63.6379 551.967 63.0925 550.52L61.0097 544.995C60.4676 543.557 60.7625 541.947 61.7794 540.795L68.886 532.742C71.3547 534.46 74.1749 535.634 77.1419 536.172L73.2943 540.532C70.9019 543.243 70.208 547.029 71.4834 550.412L73.5662 555.937C74.1116 557.384 75.7269 558.115 77.1739 557.57C78.6208 557.024 79.3516 555.409 78.8062 553.962L76.7234 548.437C76.1813 546.999 76.4763 545.39 77.4931 544.237L84.6205 536.16C86.9948 535.72 87.0805 535.582 100.583 530.492C101.761 530.048 102.875 529.508 103.92 528.885L114.606 530.247C116.131 530.441 117.415 531.455 117.957 532.893L120.039 538.418C120.585 539.865 122.2 540.596 123.647 540.05C125.094 539.505 125.825 537.89 125.279 536.443L123.197 530.918C121.921 527.535 118.901 525.149 115.314 524.692L109.546 523.956C111.419 521.594 112.763 518.85 113.483 515.93L124.137 517.288C125.662 517.482 126.945 518.496 127.487 519.934L129.57 525.459C130.116 526.906 131.731 527.637 133.178 527.092C134.625 526.546 135.356 524.931 134.81 523.484L132.727 517.959C131.452 514.576 128.432 512.19 124.845 511.733L114.082 510.361C113.97 506.364 112.878 503.945 111.657 500.707C121.341 492.946 122.165 482.081 116.128 472.273C121.059 463.703 117.48 452.83 108.584 448.805ZM39.5201 475.624L40.5793 486.321C40.7915 488.464 43.2502 489.574 44.9978 488.32L53.7316 482.054C57.1572 491.214 47.8156 500.032 38.8684 495.984C29.9663 491.956 30.343 479.11 39.5201 475.624ZM98.6077 525.252L86.2131 529.924C78.335 532.894 69.5096 528.901 66.5397 521.022L65.3632 517.901C62.3933 510.023 66.3866 501.198 74.2645 498.228L86.6592 493.555C94.5373 490.586 103.363 494.579 106.333 502.457L107.509 505.578C110.479 513.456 106.486 522.282 98.6077 525.252ZM111.776 468.499C107.728 477.447 94.8899 476.988 91.417 467.848L102.113 466.789C104.256 466.577 105.367 464.119 104.113 462.37L97.847 453.636C107.035 450.2 115.807 459.592 111.776 468.499Z" fill="#E7CC89"/>
</g>
<g clip-path="url(#clip4)">
<path d="M445.731 709.592C450.614 705.869 449.105 698.159 443.183 696.549L429.301 692.775C428.288 692.5 427.475 691.743 427.127 690.752L422.367 677.177C420.335 671.383 412.536 670.436 409.175 675.571L401.296 687.606C400.721 688.485 399.75 689.025 398.7 689.049L384.318 689.382C378.181 689.524 374.87 696.648 378.714 701.431L387.726 712.644C388.384 713.463 388.597 714.552 388.296 715.559L384.169 729.339C382.409 735.212 388.147 740.575 393.897 738.392L407.345 733.286C408.327 732.913 409.43 733.048 410.293 733.645L422.124 741.829C427.173 745.323 434.039 741.505 433.74 735.375L433.04 721.007C432.989 719.958 433.457 718.951 434.292 718.314L445.731 709.592ZM417.759 677.498C418.331 678.146 417.978 677.408 423.146 692.148C423.954 694.45 425.841 696.206 428.195 696.846C443.216 700.93 442.522 700.64 443.229 701.195L414.502 704.243L417.759 677.498ZM398.798 693.266C401.236 693.21 403.49 691.958 404.826 689.917C413.382 676.848 412.861 677.48 413.571 676.988L410.315 703.733L383.159 693.88C383.977 693.512 383.219 693.627 398.798 693.266ZM388.095 731.891C387.976 730.968 387.863 731.707 392.338 716.769C393.037 714.433 392.543 711.902 391.015 710.001C381.248 697.849 381.692 698.536 381.438 697.744L408.532 707.574L388.095 731.891ZM412.693 730.176C410.687 728.788 408.129 728.477 405.848 729.342C391.217 734.897 392.066 734.655 391.275 734.664L411.621 710.455L425.563 738.839C424.796 738.64 425.554 739.072 412.693 730.176ZM428.826 721.212C429.582 736.732 429.656 736.035 429.316 736.91L415.312 708.4L443.973 705.358C443.541 706.059 444.173 705.475 431.734 714.959C429.795 716.438 428.707 718.776 428.826 721.212Z" fill="#EFD598"/>
</g>
<g clip-path="url(#clip5)">
<path d="M680.731 344.592C685.614 340.869 684.105 333.159 678.183 331.549L664.301 327.775C663.288 327.5 662.475 326.743 662.127 325.752L657.367 312.177C655.335 306.383 647.536 305.436 644.175 310.571L636.296 322.606C635.721 323.485 634.75 324.025 633.7 324.049L619.318 324.382C613.181 324.524 609.87 331.648 613.714 336.431L622.726 347.644C623.384 348.463 623.597 349.552 623.296 350.559L619.169 364.339C617.409 370.212 623.147 375.575 628.897 373.392L642.345 368.286C643.327 367.913 644.43 368.048 645.293 368.645L657.124 376.829C662.173 380.323 669.039 376.505 668.74 370.375L668.04 356.007C667.989 354.958 668.457 353.951 669.292 353.314L680.731 344.592ZM652.759 312.498C653.331 313.146 652.978 312.408 658.146 327.148C658.954 329.45 660.841 331.206 663.195 331.846C678.216 335.93 677.522 335.64 678.229 336.195L649.503 339.243L652.759 312.498ZM633.798 328.266C636.236 328.21 638.49 326.958 639.826 324.917C648.382 311.848 647.861 312.48 648.571 311.988L645.315 338.733L618.159 328.88C618.977 328.512 618.219 328.627 633.798 328.266ZM623.095 366.891C622.976 365.968 622.863 366.707 627.338 351.769C628.037 349.433 627.543 346.902 626.015 345.001C616.248 332.849 616.692 333.536 616.438 332.744L643.532 342.574L623.095 366.891ZM647.693 365.176C645.687 363.788 643.129 363.477 640.848 364.342C626.217 369.897 627.066 369.655 626.275 369.664L646.621 345.455L660.563 373.839C659.796 373.64 660.554 374.072 647.693 365.176ZM663.826 356.212C664.582 371.732 664.656 371.035 664.316 371.91L650.312 343.4L678.973 340.358C678.541 341.059 679.173 340.475 666.734 349.959C664.795 351.438 663.708 353.776 663.826 356.212Z" fill="#EFD598"/>
</g>
<g clip-path="url(#clip6)">
<path d="M1273.73 504.592C1278.61 500.869 1277.1 493.159 1271.18 491.549L1257.3 487.775C1256.29 487.5 1255.47 486.743 1255.13 485.752L1250.37 472.177C1248.33 466.383 1240.54 465.436 1237.18 470.571L1229.3 482.606C1228.72 483.485 1227.75 484.025 1226.7 484.049L1212.32 484.382C1206.18 484.524 1202.87 491.648 1206.71 496.431L1215.73 507.644C1216.38 508.463 1216.6 509.552 1216.3 510.559L1212.17 524.339C1210.41 530.212 1216.15 535.575 1221.9 533.392L1235.35 528.286C1236.33 527.913 1237.43 528.048 1238.29 528.645L1250.12 536.829C1255.17 540.323 1262.04 536.505 1261.74 530.375L1261.04 516.007C1260.99 514.958 1261.46 513.951 1262.29 513.314L1273.73 504.592ZM1245.76 472.498C1246.33 473.146 1245.98 472.408 1251.15 487.148C1251.95 489.45 1253.84 491.206 1256.19 491.846C1271.22 495.93 1270.52 495.64 1271.23 496.195L1242.5 499.243L1245.76 472.498ZM1226.8 488.266C1229.24 488.21 1231.49 486.958 1232.83 484.917C1241.38 471.848 1240.86 472.48 1241.57 471.988L1238.31 498.733L1211.16 488.88C1211.98 488.512 1211.22 488.627 1226.8 488.266ZM1216.09 526.891C1215.98 525.968 1215.86 526.707 1220.34 511.769C1221.04 509.433 1220.54 506.902 1219.01 505.001C1209.25 492.849 1209.69 493.536 1209.44 492.744L1236.53 502.574L1216.09 526.891ZM1240.69 525.176C1238.69 523.788 1236.13 523.477 1233.85 524.342C1219.22 529.897 1220.07 529.655 1219.27 529.664L1239.62 505.455L1253.56 533.839C1252.8 533.64 1253.55 534.072 1240.69 525.176ZM1256.83 516.212C1257.58 531.732 1257.66 531.035 1257.32 531.91L1243.31 503.4L1271.97 500.358C1271.54 501.059 1272.17 500.475 1259.73 509.959C1257.79 511.438 1256.71 513.776 1256.83 516.212Z" fill="#FBE1A8"/>
</g>
<g clip-path="url(#clip7)">
<path d="M126.056 164.654C131.932 162.874 133.214 155.124 128.229 151.544L116.543 143.155C115.69 142.542 115.193 141.549 115.214 140.499L115.5 126.116C115.623 119.978 108.648 116.364 103.703 119.999L92.113 128.52C91.2666 129.142 90.1688 129.308 89.1764 128.963L75.5865 124.246C69.7864 122.233 64.1934 127.749 66.1227 133.575L70.645 147.231C70.9754 148.229 70.7938 149.324 70.1595 150.161L61.4743 161.628C57.7728 166.515 61.2731 173.547 67.4226 173.512L81.8076 173.431C82.858 173.425 83.8438 173.936 84.444 174.798L92.6659 186.602C96.1752 191.641 103.942 190.464 105.806 184.617L110.174 170.911C110.493 169.911 111.284 169.131 112.289 168.826L126.056 164.654ZM111.072 124.806C111.38 125.613 111.307 124.798 110.996 140.415C110.948 142.854 112.102 145.159 114.083 146.581C126.728 155.66 126.179 155.145 126.647 155.913L98.6685 148.724L111.072 124.806ZM87.7935 132.949C90.0978 133.749 92.6468 133.364 94.6122 131.919C107.198 122.666 106.489 123.076 107.327 122.864L94.9234 146.782L72.9274 128.055C73.8219 127.997 73.0723 127.839 87.7935 132.949ZM64.2605 165.392C64.4721 164.486 64.1079 165.139 73.5229 152.709C74.9956 150.764 75.4172 148.221 74.6503 145.905C69.7492 131.106 69.925 131.904 69.9641 131.073L91.9098 149.757L64.2605 165.392ZM87.9058 172.387C86.5115 170.386 84.2233 169.199 81.7837 169.212C66.134 169.301 67.014 169.371 66.2702 169.102L93.797 153.536L96.9341 185.003C96.2844 184.549 96.8435 185.219 87.9058 172.387ZM106.154 169.63C101.436 184.435 101.749 183.807 101.124 184.508L97.9735 152.901L125.889 160.073C125.239 160.579 126.035 160.253 111.065 164.789C108.731 165.496 106.895 167.306 106.154 169.63Z" fill="#EFD598"/>
</g>
<defs>
<clipPath id="clip0">
<rect width="95.5599" height="95.5599" fill="white" transform="translate(1170.39 653.537) rotate(10.4867)"/>
</clipPath>
<clipPath id="clip1">
<rect width="95.5599" height="95.5599" fill="white" transform="translate(1309.85 232.06) rotate(36.1176)"/>
</clipPath>
<clipPath id="clip2">
<rect width="95.5599" height="95.5599" fill="white" transform="translate(209.378 148.008) rotate(-9.08848)"/>
</clipPath>
<clipPath id="clip3">
<rect width="95.5599" height="95.5599" fill="white" transform="translate(22 476.244) rotate(-20.655)"/>
</clipPath>
<clipPath id="clip4">
<rect width="72" height="72" fill="white" transform="translate(380.703 666.537) rotate(6.94255)"/>
</clipPath>
<clipPath id="clip5">
<rect width="72" height="72" fill="white" transform="translate(615.703 301.537) rotate(6.94255)"/>
</clipPath>
<clipPath id="clip6">
<rect width="72" height="72" fill="white" transform="translate(1208.7 461.537) rotate(6.94255)"/>
</clipPath>
<clipPath id="clip7">
<rect width="72" height="72" fill="white" transform="translate(80.1882 101.58) rotate(27.4096)"/>
</clipPath>
</defs>
</svg>
