<svg width="25" height="20" viewBox="0 0 25 20" fill="none" xmlns="http://www.w3.org/2000/svg">
<g clip-path="url(#clip0)">
<path d="M8.09855 19.8365C17.3166 19.8365 22.3576 12.2057 22.3576 5.58856C22.3576 5.37182 22.3531 5.15606 22.3434 4.94127C23.3219 4.23443 24.1724 3.35235 24.8433 2.34821C23.9453 2.74703 22.979 3.01551 21.9653 3.13657C23 2.51662 23.7943 1.53593 24.1691 0.366845C23.2008 0.940423 22.1285 1.3573 20.9868 1.58237C20.0723 0.609034 18.7703 0.000244141 17.3287 0.000244141C14.5611 0.000244141 12.3169 2.24284 12.3169 5.00717C12.3169 5.40012 12.3608 5.78235 12.4468 6.14898C8.28165 5.93956 4.58829 3.94692 2.11649 0.916989C1.68609 1.65702 1.43792 2.51665 1.43792 3.43388C1.43792 5.17122 2.32267 6.70494 3.66808 7.6022C2.84587 7.57681 2.07349 7.35128 1.39841 6.97589C1.39767 6.9969 1.39767 7.01739 1.39767 7.03985C1.39767 9.46501 3.12513 11.4898 5.41825 11.9486C4.99713 12.0634 4.55407 12.1249 4.09677 12.1249C3.77435 12.1249 3.46021 12.0932 3.15488 12.0346C3.7929 14.0242 5.643 15.4721 7.83644 15.5126C6.12119 16.856 3.96046 17.6561 1.6121 17.6561C1.20808 17.6561 0.808957 17.6331 0.416687 17.5868C2.63464 19.0073 5.26825 19.8362 8.09882 19.8362" fill="white" fill-opacity="0.75"/>
</g>
<defs>
<clipPath id="clip0">
<rect width="24.5902" height="20" fill="white"/>
</clipPath>
</defs>
</svg>
