<svg width="191" height="188" viewBox="0 0 191 188" fill="none" xmlns="http://www.w3.org/2000/svg">
<path d="M184.043 92.0276C181.784 91.585 179.489 92.0478 177.579 93.331C175.997 94.3941 174.836 95.9151 174.232 97.6891L164.417 93.4028C164.437 92.7311 164.447 92.0691 164.447 91.4243C164.447 85.6533 163.724 79.923 162.299 74.3717L166.702 71.3851C169.493 73.8293 173.549 74.5601 177.1 73.0175C181.878 70.941 184.167 65.4115 182.31 60.4288L180.237 54.8663C178.358 49.8227 172.952 47.1654 167.932 48.813C165.391 49.6474 163.347 51.4274 162.175 53.8249C161.509 55.1885 161.173 56.6512 161.172 58.1209L156.177 58.8184C155.492 57.564 154.745 56.2927 153.946 55.0263C153.121 53.7165 151.389 53.3244 150.08 54.1497C148.77 54.9754 148.377 56.7065 149.203 58.0163C150.145 59.5111 151.009 61.0089 151.769 62.4689C152.533 63.9327 154.143 64.7629 155.773 64.5357L164.781 63.2782C165.617 63.1616 166.356 62.6745 166.792 61.9523C167.229 61.2302 167.317 60.3495 167.032 59.5552C166.645 58.4772 166.71 57.3165 167.212 56.2871C167.714 55.2607 168.591 54.4985 169.681 54.1404C171.796 53.4466 174.173 54.6506 174.983 56.8246L177.056 62.3871C177.858 64.5398 176.875 67.002 174.865 67.8759C172.94 68.7117 170.674 67.9951 169.592 66.2095C169.193 65.5528 168.543 65.0881 167.792 64.9244C167.042 64.7603 166.257 64.9124 165.621 65.3434L158.15 70.411C156.764 71.3507 156.133 73.069 156.58 74.6868C158.08 80.117 158.84 85.7486 158.84 91.4247C158.84 92.3547 158.817 93.3265 158.771 94.3137C158.697 95.9218 159.636 97.4342 161.108 98.0768L175.115 104.194C175.894 104.534 176.785 104.502 177.538 104.108C178.291 103.714 178.824 102.999 178.988 102.165L179.432 99.9031C179.587 99.1148 180.039 98.4337 180.706 97.9855C181.372 97.5374 182.174 97.3755 182.963 97.5306C184.591 97.8499 185.655 99.434 185.336 101.062L183.039 112.768C182.879 113.583 182.405 114.277 181.705 114.725C181.005 115.171 180.173 115.307 179.362 115.108C177.83 114.732 176.845 113.091 177.167 111.449L177.228 111.136C177.393 110.292 177.162 109.418 176.6 108.767C176.038 108.114 175.202 107.754 174.349 107.796L159.197 108.487C157.593 108.56 156.175 109.636 155.668 111.166C154.264 115.404 152.401 119.499 150.13 123.336C149.284 124.765 149.433 126.576 150.499 127.843L157.202 135.806C157.7 136.398 158.42 136.757 159.192 136.8C159.964 136.842 160.72 136.565 161.279 136.032C162.782 134.603 165.066 134.481 166.71 135.739C167.601 136.42 168.172 137.407 168.32 138.518C168.468 139.629 168.174 140.731 167.493 141.621L165.551 144.159C164.155 145.982 161.549 146.451 159.741 145.205C158.205 144.146 157.548 142.173 158.143 140.406C158.608 139.03 157.944 137.527 156.614 136.943L146.958 132.702C145.423 132.027 143.63 132.408 142.497 133.652C138.192 138.38 133.22 142.408 127.719 145.624C126.33 146.435 125.572 148.045 125.831 149.629L128.303 164.702C128.44 165.541 128.951 166.272 129.691 166.69C130.432 167.108 131.321 167.167 132.111 166.851L134.25 165.995C135.021 165.687 135.862 165.707 136.618 166.052C137.373 166.397 137.939 167.022 138.213 167.811C138.729 169.302 137.886 171.021 136.332 171.642L125.409 176.012C124.638 176.321 123.797 176.3 123.041 175.955C122.286 175.611 121.72 174.986 121.446 174.197C120.93 172.706 121.773 170.987 123.325 170.366L123.621 170.247C124.42 169.928 125.028 169.259 125.27 168.433C125.512 167.608 125.362 166.717 124.862 166.016L116.049 153.669C115.117 152.362 113.443 151.755 111.886 152.159C106.749 153.491 101.437 154.166 96.0996 154.166C91.8731 154.166 87.6361 153.739 83.5071 152.897C81.9308 152.576 80.2929 153.269 79.4283 154.622L70.6078 168.456C70.1507 169.173 70.0438 170.058 70.317 170.863C70.5895 171.669 71.213 172.306 72.0118 172.597L72.3239 172.711C73.3948 173.102 74.2497 173.886 74.7308 174.92C75.2119 175.953 75.2616 177.112 74.8713 178.183C74.7588 178.49 74.7016 178.816 74.7016 179.143C74.7016 180.203 74.3888 181.007 73.8206 181.404C73.2528 181.802 72.3916 181.821 71.3946 181.457L60.5591 177.506C58.3892 176.715 57.2341 174.296 57.9836 172.113C58.3413 171.072 59.1113 170.226 60.152 169.729C61.2513 169.205 62.5293 169.14 63.6571 169.551L63.9053 169.641C64.713 169.937 65.6124 169.844 66.3435 169.39C67.0751 168.936 67.5573 168.172 67.6518 167.316L69.4475 151.104C69.6244 149.508 68.7826 147.941 67.3532 147.203C60.7987 143.818 54.9342 139.341 49.9242 133.897C48.8215 132.698 47.0706 132.307 45.5672 132.924L32.3442 138.347C31.6104 138.647 31.0385 139.245 30.7701 139.991C30.5014 140.737 30.5616 141.562 30.935 142.261C31.7742 143.831 31.2826 145.754 29.7919 146.735C28.2552 147.746 26.1037 147.273 24.9972 145.68L21.6103 140.805C20.524 139.241 20.7827 137.143 22.199 136.026C22.9313 135.449 23.84 135.197 24.7558 135.314C25.6787 135.433 26.495 135.906 27.0554 136.647C27.5622 137.318 28.3435 137.726 29.1837 137.758C30.0211 137.79 30.8341 137.444 31.391 136.814L40.7045 126.288C41.7975 125.052 41.9934 123.25 41.1916 121.802C40.1902 119.996 39.2587 118.094 38.4236 116.149C37.8121 114.727 36.164 114.068 34.741 114.68C33.3183 115.291 32.6604 116.939 33.2712 118.362C34.0199 120.104 34.8397 121.816 35.7151 123.465L29.0443 131.006C27.9715 130.348 26.7612 129.919 25.472 129.753C23.0471 129.441 20.6541 130.105 18.7287 131.622C14.9874 134.57 14.2308 140.009 17.0062 144.004L20.3932 148.879C23.2195 152.947 28.8174 154.086 32.8735 151.419C35.9068 149.424 37.3688 145.944 36.8585 142.554L46.6071 138.556C51.6137 143.813 57.3702 148.207 63.7472 151.639L62.4135 163.682C60.8129 163.636 59.2026 163.969 57.738 164.667C55.3278 165.817 53.5317 167.814 52.6809 170.29C50.9458 175.343 53.6184 180.942 58.6385 182.773L69.4741 186.724C70.5615 187.121 71.6541 187.316 72.7063 187.316C74.2912 187.316 75.7853 186.872 77.0356 185.997C78.9973 184.624 80.1703 182.324 80.2973 179.633C81.0244 177.289 80.8577 174.792 79.814 172.551C79.1453 171.115 78.1641 169.886 76.95 168.938L83.5329 158.613C92.9862 160.372 102.844 160.113 112.159 157.868L118.556 166.832C116.039 169.11 114.993 172.696 116.148 176.032C116.929 178.283 118.549 180.067 120.712 181.055C122.845 182.029 125.315 182.088 127.492 181.218L138.415 176.848C142.78 175.102 145.018 170.326 143.511 165.975C142.731 163.724 141.11 161.94 138.947 160.952C137.173 160.141 135.163 159.964 133.285 160.43L131.552 149.867C136.8 146.677 141.588 142.801 145.813 138.323L152.336 141.188C152.154 144.539 153.708 147.857 156.56 149.822C160.862 152.787 166.768 151.796 170.004 147.567L171.946 145.029C173.537 142.949 174.224 140.374 173.878 137.779C173.533 135.183 172.198 132.877 170.118 131.286C167.084 128.964 163.123 128.652 159.862 130.259L155.56 125.148C157.571 121.608 159.266 117.88 160.614 114.035L171.61 113.534C172.155 116.885 174.597 119.711 178.026 120.553C180.34 121.122 182.718 120.729 184.722 119.45C186.698 118.188 188.09 116.146 188.541 113.846L190.838 102.14C191.752 97.4787 188.704 92.9423 184.043 92.0276Z" fill="#F77F6E"/>
<path d="M18.0626 99.6003L28.5707 102.027C28.7995 103.489 29.0824 104.972 29.4151 106.452C29.7078 107.756 30.8651 108.642 32.1479 108.642C32.3513 108.642 32.558 108.619 32.7647 108.573C34.2752 108.234 35.225 106.734 34.8856 105.223C34.4995 103.502 34.1859 101.779 33.9541 100.1C33.7332 98.5033 32.5318 97.1867 30.9653 96.8253L16.0826 93.3882C15.2554 93.1972 14.3837 93.392 13.7164 93.9179C13.0488 94.4442 12.656 95.2449 12.6485 96.0949L12.6332 97.8371C12.6156 99.7876 11.0146 101.375 9.0638 101.375C8.13492 101.375 7.26285 101.011 6.60908 100.352C5.95494 99.6916 5.59946 98.8169 5.60768 97.888L5.70487 87.0763C5.71347 86.085 6.13473 85.115 6.86027 84.4153C7.54208 83.7574 8.40368 83.4045 9.31387 83.4314C11.2075 83.4815 12.7401 85.0649 12.7296 86.9612C12.7248 87.8198 13.1139 88.6335 13.7856 89.1688C14.4573 89.7045 15.338 89.9026 16.173 89.706L30.951 86.2409C32.5165 85.8738 33.7127 84.5539 33.9283 82.9563C35.0187 74.87 37.6424 67.1829 41.7261 60.1077C42.5499 58.679 42.3877 56.8766 41.3205 55.6221L34.2733 47.3455C33.7224 46.6989 32.9124 46.3356 32.0579 46.3606C31.2082 46.3853 30.4154 46.7938 29.9025 47.4715L29.2918 48.2789C28.8354 48.8822 28.17 49.2616 27.4179 49.348C26.6685 49.4339 25.9317 49.2134 25.3475 48.7267C24.2433 47.8068 24.0945 46.0672 25.0159 44.849L29.71 38.6425C30.6214 37.4377 32.3431 37.1985 33.5478 38.1102C34.6759 38.9632 34.9649 40.5656 34.2061 41.7584C33.7657 42.4511 33.651 43.3014 33.8921 44.086C34.1332 44.8706 34.7058 45.5102 35.4587 45.8358L45.313 50.0978C46.8407 50.759 48.6241 50.3755 49.7507 49.142C54.237 44.2277 59.4373 40.0771 65.2087 36.8056C66.6067 36.0124 67.3861 34.4141 67.1483 32.8269L64.8783 17.7226C64.7519 16.8819 64.2507 16.1441 63.5161 15.7164C62.7809 15.2884 61.8913 15.2174 61.0992 15.5224L58.9487 16.3496C58.1735 16.6472 57.3332 16.6162 56.5822 16.2611C55.8316 15.9063 55.2739 15.2742 55.0112 14.4814C54.5144 12.9832 55.3805 11.2761 56.9426 10.6754L67.9232 6.4519C68.6985 6.15361 69.5387 6.18539 70.2897 6.54049C71.0403 6.89522 71.5984 7.52731 71.8611 8.32013C72.3575 9.81831 71.4915 11.5254 69.9294 12.1265L69.6326 12.2409C68.8297 12.55 68.2129 13.2105 67.9598 14.0329C67.7071 14.8552 67.8455 15.7482 68.3362 16.4551L76.9806 28.9167C77.895 30.2347 79.5587 30.8638 81.1208 30.4814C85.9929 29.2882 91.0324 28.683 96.1055 28.683H96.107C97.7611 28.683 99.2439 27.6405 99.7968 26.0904L102.659 18.0814C102.916 17.363 102.869 16.5706 102.528 15.888C102.188 15.2051 101.584 14.69 100.856 14.4623C98.7715 13.8104 97.4456 11.7635 97.7028 9.59553C97.84 8.44199 98.4459 7.392 99.4088 6.6388C100.42 5.84785 101.714 5.48414 102.96 5.64151L106.891 6.13642C109.439 6.45714 111.295 8.71075 111.028 11.1599C110.822 13.0505 109.499 14.5838 107.656 15.066C106.307 15.4193 105.422 16.7111 105.581 18.0971L106.576 26.7759C106.765 28.4322 107.989 29.7861 109.622 30.1453C115.884 31.5209 121.884 33.8523 127.455 37.0736C128.85 37.881 130.626 37.742 131.874 36.729L143.734 27.1019C144.394 26.5662 144.775 25.76 144.771 24.9099C144.766 24.0603 144.376 23.2581 143.711 22.7296L141.906 21.2968C141.256 20.7806 140.856 20.0405 140.781 19.2125C140.705 18.3861 140.966 17.5847 141.516 16.9556C142.554 15.7665 144.465 15.6462 145.776 16.6864L154.99 24.002C155.64 24.5182 156.04 25.2583 156.116 26.0859C156.191 26.9124 155.93 27.7138 155.38 28.3433C154.342 29.5316 152.43 29.6519 151.121 28.6128L150.873 28.4154C150.198 27.8798 149.315 27.6839 148.479 27.8835C147.642 28.0831 146.943 28.6561 146.583 29.4377L140.23 43.2278C139.559 44.6864 139.863 46.4402 140.987 47.5919C141.386 48.0001 141.779 48.4225 142.248 48.9312C143.296 50.0705 145.07 50.1438 146.209 49.0949C147.348 48.046 147.421 46.2728 146.373 45.1334C146.175 44.9177 145.988 44.7159 145.807 44.5226L150.421 34.5072C153.649 35.5628 157.281 34.6914 159.603 32.0326C161.171 30.238 161.915 27.9455 161.699 25.5775C161.487 23.2428 160.312 21.0684 158.476 19.6114L149.262 12.2962C145.58 9.37349 140.323 9.79924 137.293 13.2677C135.726 15.0623 134.981 17.3548 135.197 19.7228C135.374 21.6658 136.217 23.4981 137.554 24.898L129.246 31.6431C123.818 28.627 118.031 26.3763 112.011 24.9406L111.395 19.5628C114.244 17.9869 116.243 15.0847 116.605 11.7673C117.2 6.29566 113.157 1.27445 107.593 0.573587L103.663 0.0786818C100.947 -0.262968 98.1368 0.518266 95.9571 2.2224C93.8086 3.90261 92.4517 6.28631 92.1373 8.93465C91.6798 12.7848 93.4561 16.4636 96.541 18.5442L94.9176 23.0862C90.1936 23.1669 85.4983 23.731 80.9272 24.7668L74.6534 15.7224C77.2008 13.4781 78.2949 9.90652 77.1844 6.55582C76.4342 4.29398 74.8373 2.48854 72.688 1.47182C70.5686 0.469672 68.0993 0.377345 65.9114 1.21876L54.9312 5.44191C50.5432 7.12922 48.241 11.8749 49.6902 16.2457C50.44 18.5076 52.0365 20.313 54.1862 21.3297C55.9498 22.1637 57.9552 22.3681 59.8414 21.9274L61.4322 32.5126C55.8967 35.7762 50.8609 39.793 46.4359 44.4737L40.1064 41.7364C40.6208 38.7396 39.4758 35.5628 36.931 33.6377C35.1529 32.2928 32.9583 31.7198 30.7492 32.0274C28.5408 32.3335 26.584 33.4818 25.2394 35.26L20.5449 41.4665C17.7979 45.0975 18.3313 50.1789 21.759 53.0343C23.5327 54.512 25.7691 55.1814 28.0582 54.9183C29.5015 54.7527 30.8726 54.2073 32.0321 53.3614L36.2788 58.3497C32.3547 65.4283 29.7542 73.0537 28.5378 81.0477L17.6899 83.5914C16.373 80.305 13.1868 77.9247 9.46227 77.8264C7.03745 77.7654 4.73973 78.6696 2.96644 80.3805C1.16624 82.1179 0.120358 84.5397 0.0975566 87.0255L0.000369656 97.8379C-0.0213105 100.274 0.91131 102.569 2.62591 104.299C4.34051 106.029 6.62702 106.982 9.06343 106.982C13.4929 106.982 17.2215 103.8 18.0626 99.6003Z" fill="#F77F6E"/>
<path d="M82.2209 84.2968C83.5886 83.572 84.1101 81.8749 83.3849 80.5069C82.6601 79.1395 80.9639 78.6169 79.5946 79.3429C72.8951 82.8939 65.2588 81.9553 61.4397 77.1094C59.2968 74.3912 58.5596 70.7889 59.3641 66.9668C60.2073 62.959 62.6191 59.2169 66.1548 56.4303C69.6898 53.6433 73.892 52.1742 77.9854 52.2879C81.8897 52.3981 85.2199 53.9561 87.3632 56.6748C90.5809 60.757 90.5401 66.8502 87.2589 72.1981C86.4493 73.518 86.8623 75.2442 88.1826 76.0538C89.5021 76.8635 91.2283 76.45 92.0379 75.1305C96.5616 67.7578 96.4547 59.1511 91.7662 53.2037C88.5766 49.157 83.7385 46.8413 78.1439 46.6836C72.7373 46.5266 67.2485 48.4284 62.6837 52.027C58.1182 55.6255 54.991 60.5215 53.8771 65.8122C52.7243 71.289 53.8465 76.5342 57.0361 80.5805C60.3946 84.841 65.6535 87.0823 71.3113 87.0819C74.9158 87.0819 78.6818 86.1729 82.2209 84.2968Z" fill="#F77F6E"/>
<path d="M136.619 59.1549C136.619 53.3428 131.21 48.6143 124.561 48.6143C117.913 48.6143 112.504 53.3428 112.504 59.1549C112.504 64.9671 117.913 69.6956 124.561 69.6956C131.21 69.6956 136.619 64.9671 136.619 59.1549ZM118.111 59.1549C118.111 56.4344 121.005 54.2212 124.562 54.2212C128.119 54.2212 131.012 56.4344 131.012 59.1549C131.012 61.8754 128.119 64.0887 124.562 64.0887C121.005 64.0887 118.111 61.8754 118.111 59.1549Z" fill="#F77F6E"/>
<path d="M104.695 47.415C106.244 47.415 107.499 46.1598 107.499 44.6116C107.499 43.0633 106.244 41.8081 104.695 41.8081H101.282C99.7333 41.8081 98.4785 43.0633 98.4785 44.6116C98.4785 46.1598 99.7333 47.415 101.282 47.415H104.695Z" fill="#F77F6E"/>
</svg>
